mtllib ./pb-62962.mtl
g Plane 0
v 0 0.1384192 0
v 0 0.1384192 1.25
v -1.125 0.1384192 0
v -1.125 0.1384192 1.25
v 0 0.1384192 2.5
v -1.125 0.1384192 2.5
v 0 0.1384192 3.75
v -1.125 0.1384192 3.75
v 0 0.1384192 5
v -1.125 0.1384192 5
v -3.875 0.1384192 0
v -3.875 0.1384192 1.25
v -5 0.1384192 0
v -5 0.1384192 1.25
v -3.875 0.1384192 2.5
v -5 0.1384192 2.5
v -3.875 0.1384192 3.75
v -5 0.1384192 3.75
v -3.875 0.1384192 5
v -5 0.1384192 5
v 0 0 3.75
v 0 0 5
v 0 0.1384192 3.75
v 0 0.1384192 5
v 0 0 5
v -1.25 0 5
v 0 0.1384192 5
v -1.125 0.1384192 5
v 0 0 2.5
v 0 0.1384192 2.5
v 0 0 1.25
v 0 0.1384192 1.25
v 0 0 0
v 0 0.1384192 0
v -1.25 0 0
v 0 0 0
v -1.125 0.1384192 0
v 0 0.1384192 0
v -5 0 3.75
v -5 0 2.5
v -5 0.1384192 3.75
v -5 0.1384192 2.5
v -3.75 0 5
v -5 0 5
v -3.875 0.1384192 5
v -5 0.1384192 5
v -5 0 5
v -5 0.1384192 5
v -5 0 1.25
v -5 0.1384192 1.25
v -5 0 0
v -5 0.1384192 0
v -5 0 0
v -3.75 0 0
v -5 0.1384192 0
v -3.875 0.1384192 0
v -1.25 0 0
v -1.25 0 1.25
v -2.5 0 0
v -2.5 0 1.25
v -1.25 0 2.5
v -2.5 0 2.5
v -1.25 0 3.75
v -2.5 0 3.75
v -1.25 0 5
v -2.5 0 5
v -3.75 0 0
v -3.75 0 1.25
v -3.75 0 2.5
v -3.75 0 3.75
v -3.75 0 5
v -1.25 0 3.75
v -1.25 0 2.5
v -1.125 0.1384192 3.75
v -1.125 0.1384192 2.5
v -1.25 0 5
v -1.125 0.1384192 5
v -1.25 0 1.25
v -1.125 0.1384192 1.25
v -1.25 0 0
v -1.125 0.1384192 0
v -3.75 0 3.75
v -3.75 0 5
v -3.875 0.1384192 3.75
v -3.875 0.1384192 5
v -3.75 0 2.5
v -3.875 0.1384192 2.5
v -3.75 0 1.25
v -3.875 0.1384192 1.25
v -3.75 0 0
v -3.875 0.1384192 0

vn 0 1 0
vn 0 1 0
vn 0 1 0
vn 0 1 0
vn 0 1 0
vn 0 1 0
vn 0 1 0
vn 0 1 0
vn 0 1 0
vn 0 1 0
vn 0 1 0
vn 0 1 0
vn 0 1 0
vn 0 1 0
vn 0 1 0
vn 0 1 0
vn 0 1 0
vn 0 1 0
vn 0 1 0
vn 0 1 0
vn 1 0 0
vn 1 0 0
vn 1 0 0
vn 1 0 0
vn 0 0 1
vn 0 0 0.9999999
vn 0 0 0.9999999
vn 0 0 1
vn 1 0 0
vn 1 0 0
vn 1 0 0
vn 1 0 0
vn 1 0 0
vn 1 0 0
vn 0 0 -1
vn 0 0 -0.9999999
vn 0 0 -0.9999999
vn 0 0 -1
vn -1 0 0
vn -1 0 0
vn -1 0 0
vn -1 0 0
vn 0 0 1
vn 0 0 0.9999999
vn 0 0 0.9999999
vn 0 0 1
vn -1 0 0
vn -1 0 0
vn -1 0 0
vn -1 0 0
vn -1 0 0
vn -1 0 0
vn 0 0 -1
vn 0 0 -0.9999999
vn 0 0 -0.9999999
vn 0 0 -1
vn 0 1 0
vn 0 1 0
vn 0 1 0
vn 0 1 0
vn 0 1 0
vn 0 1 0
vn 0 1 0
vn 0 1 0
vn 0 1 0
vn 0 1 0
vn 0 1 0
vn 0 1 0
vn 0 1 0
vn 0 1 0
vn 0 1 0
vn -0.742166 0.6702161 0
vn -0.742166 0.6702161 0
vn -0.742166 0.6702161 0
vn -0.742166 0.6702161 0
vn -0.742166 0.6702161 0
vn -0.742166 0.6702161 0
vn -0.742166 0.6702161 0
vn -0.742166 0.6702161 0
vn -0.742166 0.6702161 0
vn -0.742166 0.6702161 0
vn 0.742166 0.6702161 0
vn 0.742166 0.6702161 0
vn 0.742166 0.6702161 0
vn 0.742166 0.6702161 0
vn 0.742166 0.6702161 0
vn 0.742166 0.6702161 0
vn 0.742166 0.6702161 0
vn 0.742166 0.6702161 0
vn 0.742166 0.6702161 0
vn 0.742166 0.6702161 0

vt 0 0
vt 0 1.25
vt 1.125 0
vt 1.125 1.25
vt 0 2.5
vt 1.125 2.5
vt 0 3.75
vt 1.125 3.75
vt 0 5
vt 1.125 5
vt 3.875 0
vt 3.875 1.25
vt 5 0
vt 5 1.25
vt 3.875 2.5
vt 5 2.5
vt 3.875 3.75
vt 5 3.75
vt 3.875 5
vt 5 5
vt -3.75 0
vt -5 0
vt -3.75 0.1384192
vt -5 0.1384192
vt 0 0
vt -1.25 0
vt 0 0.1384192
vt -1.125 0.1384192
vt -2.5 0
vt -2.5 0.1384192
vt -1.25 0
vt -1.25 0.1384192
vt 0 0
vt 0 0.1384192
vt 1.25 0
vt 0 0
vt 1.125 0.1384192
vt 0 0.1384192
vt 3.75 0
vt 2.5 0
vt 3.75 0.1384192
vt 2.5 0.1384192
vt -3.75 0
vt -5 0
vt -3.875 0.1384192
vt -5 0.1384192
vt 5 0
vt 5 0.1384192
vt 1.25 0
vt 1.25 0.1384192
vt 0 0
vt 0 0.1384192
vt 5 0
vt 3.75 0
vt 5 0.1384192
vt 3.875 0.1384192
vt 1.25 0
vt 1.25 1.25
vt 2.5 0
vt 2.5 1.25
vt 1.25 2.5
vt 2.5 2.5
vt 1.25 3.75
vt 2.5 3.75
vt 1.25 5
vt 2.5 5
vt 3.75 0
vt 3.75 1.25
vt 3.75 2.5
vt 3.75 3.75
vt 3.75 5
vt 3.75 -0.8377702
vt 2.5 -0.8377702
vt 3.75 -0.6512632
vt 2.5 -0.6512632
vt 5 -0.8377702
vt 5 -0.6512632
vt 1.25 -0.8377702
vt 1.25 -0.6512632
vt 0 -0.8377702
vt 0 -0.6512632
vt -3.75 2.51331
vt -5 2.51331
vt -3.75 2.699818
vt -5 2.699818
vt -2.5 2.51331
vt -2.5 2.699818
vt -1.25 2.51331
vt -1.25 2.699818
vt 0 2.51331
vt 0 2.699818

g TexturesCom_ConcreteBare0398_7_seamless_S
usemtl TexturesCom_ConcreteBare0398_7_seamless_S
usemap TexturesCom_ConcreteBare0398_7_seamless_S
f 2/2/2 1/1/1 3/3/3
f 4/4/4 2/2/2 3/3/3
f 5/5/5 2/2/2 4/4/4
f 6/6/6 5/5/5 4/4/4
f 7/7/7 5/5/5 6/6/6
f 8/8/8 7/7/7 6/6/6
f 9/9/9 7/7/7 8/8/8
f 10/10/10 9/9/9 8/8/8
f 12/12/12 11/11/11 13/13/13
f 14/14/14 12/12/12 13/13/13
f 15/15/15 12/12/12 14/14/14
f 16/16/16 15/15/15 14/14/14
f 17/17/17 15/15/15 16/16/16
f 18/18/18 17/17/17 16/16/16
f 19/19/19 17/17/17 18/18/18
f 20/20/20 19/19/19 18/18/18
f 22/22/22 21/21/21 23/23/23
f 24/24/24 22/22/22 23/23/23
f 26/26/26 25/25/25 27/27/27
f 28/28/28 26/26/26 27/27/27
f 21/21/21 29/29/29 30/30/30
f 23/23/23 21/21/21 30/30/30
f 29/29/29 31/31/31 32/32/32
f 30/30/30 29/29/29 32/32/32
f 31/31/31 33/33/33 34/34/34
f 32/32/32 31/31/31 34/34/34
f 36/36/36 35/35/35 37/37/37
f 38/38/38 36/36/36 37/37/37
f 40/40/40 39/39/39 41/41/41
f 42/42/42 40/40/40 41/41/41
f 44/44/44 43/43/43 45/45/45
f 46/46/46 44/44/44 45/45/45
f 39/39/39 47/47/47 48/48/48
f 41/41/41 39/39/39 48/48/48
f 49/49/49 40/40/40 42/42/42
f 50/50/50 49/49/49 42/42/42
f 51/51/51 49/49/49 50/50/50
f 52/52/52 51/51/51 50/50/50
f 54/54/54 53/53/53 55/55/55
f 56/56/56 54/54/54 55/55/55

g TexturesCom_ConcreteRough0076_1_seamless_S
usemtl TexturesCom_ConcreteRough0076_1_seamless_S
usemap TexturesCom_ConcreteRough0076_1_seamless_S
f 58/58/58 57/57/57 59/59/59
f 60/60/60 58/58/58 59/59/59
f 61/61/61 58/58/58 60/60/60
f 62/62/62 61/61/61 60/60/60
f 63/63/63 61/61/61 62/62/62
f 64/64/64 63/63/63 62/62/62
f 65/65/65 63/63/63 64/64/64
f 66/66/66 65/65/65 64/64/64
f 60/60/60 59/59/59 67/67/67
f 68/68/68 60/60/60 67/67/67
f 62/62/62 60/60/60 68/68/68
f 69/69/69 62/62/62 68/68/68
f 64/64/64 62/62/62 69/69/69
f 70/70/70 64/64/64 69/69/69
f 66/66/66 64/64/64 70/70/70
f 71/71/71 66/66/66 70/70/70
f 73/73/73 72/72/72 74/74/74
f 75/75/75 73/73/73 74/74/74
f 72/72/72 76/76/76 77/77/77
f 74/74/74 72/72/72 77/77/77
f 78/78/78 73/73/73 75/75/75
f 79/79/79 78/78/78 75/75/75
f 80/80/80 78/78/78 79/79/79
f 81/81/81 80/80/80 79/79/79
f 83/83/83 82/82/82 84/84/84
f 85/85/85 83/83/83 84/84/84
f 82/82/82 86/86/86 87/87/87
f 84/84/84 82/82/82 87/87/87
f 86/86/86 88/88/88 89/89/89
f 87/87/87 86/86/86 89/89/89
f 88/88/88 90/90/90 91/91/91
f 89/89/89 88/88/88 91/91/91
