mtllib ./pb-365106.mtl
g Small Wall 2
v 3 0 1
v -3 0 1
v 3 1 1
v -3 1 1
v -3 0 1
v -3 0 -1
v -3 1 1
v -3 1 -1
v -3 0 -1
v 3 0 -1
v -3 1 -1
v 3 1 -1
v 3 0 -1
v 3 0 1
v 3 1 -1
v 3 1 1
v 3 0 -1
v -3 0 -1
v 3 0 1
v -3 0 1
v 3 1.5 1
v -3 1.5 1
v 3 1.5 -1
v 3 1.5 1
v -3 1.5 1
v -3 1.5 -1
v 3 3 1
v -3 3 1
v 3 3 -1
v 3 3 1
v -3 3 1
v -3 3 -1
v -3 1.5 -1
v 3 1.5 -1
v -3 3 -1
v 3 3 -1
v 3 3 1
v -3 3 1
v 3 3.167052 1.000624
v -3 3.167052 1.000624
v 3 3.167052 0.2006241
v 3 3.167052 1.000624
v -3 3.167052 1.000624
v -3 3.167052 0.2006241
v -3 3 -1
v 3 3 -1
v -3 3.167052 0.2006241
v 3 3.167052 0.2006241
v 3 3.167052 1.000624
v -3 3.167052 1.000624
v 3 3.440078 0.874552
v -3 3.440078 0.874552
v 3 3.440078 0.3983856
v 3 3.440078 0.874552
v -3 3.440078 0.874552
v -3 3.440078 0.3983856
v -3 3.167052 0.2006241
v 3 3.167052 0.2006241
v -3 3.440078 0.3983856
v 3 3.440078 0.3983856
v -3 1.357306 -1.152459
v -3 1.142694 -1.152459
v 3 1.142694 -1.152459
v 3 1.357306 -1.152459
v 3 3.440078 0.874552
v -3 3.440078 0.874552
v 0.9 3.442403 0.874552
v -0.9 3.442403 0.874552
v 3 3.440078 0.3983856
v 3 3.440078 0.874552
v 0.9 3.442403 0.3983856
v 0.9 3.442403 0.874552
v -3 3.440078 0.874552
v -3 3.440078 0.3983856
v -0.9 3.442403 0.874552
v -0.9 3.442403 0.3983856
v -3 3.440078 0.3983856
v 3 3.440078 0.3983856
v -0.9 3.442403 0.3983856
v 0.9 3.442403 0.3983856
v 0.216 4.112041 0.5449108
v -0.216 4.112041 0.5449108
v 0.216 4.013071 0.4991985
v -0.216 4.013071 0.4991985
v 0.9 3.442403 0.874552
v -0.9 3.442403 0.874552
v 0.27 3.920202 0.8545284
v -0.27 3.920202 0.8545284
v 0.9 3.442403 0.3983856
v 0.9 3.442403 0.874552
v 0.27 3.824968 0.6895771
v 0.27 3.920202 0.8545284
v -0.9 3.442403 0.874552
v -0.9 3.442403 0.3983856
v -0.27 3.920202 0.8545284
v -0.27 3.824968 0.6895771
v -0.9 3.442403 0.3983856
v 0.9 3.442403 0.3983856
v -0.27 3.824968 0.6895771
v 0.27 3.824968 0.6895771
v 0.27 3.920202 0.8545284
v -0.27 3.920202 0.8545284
v 0.216 4.112041 0.5449108
v -0.216 4.112041 0.5449108
v 0.27 3.824968 0.6895771
v 0.27 3.920202 0.8545284
v 0.216 4.013071 0.4991985
v 0.216 4.112041 0.5449108
v -0.27 3.920202 0.8545284
v -0.27 3.824968 0.6895771
v -0.216 4.112041 0.5449108
v -0.216 4.013071 0.4991985
v -0.27 3.824968 0.6895771
v 0.27 3.824968 0.6895771
v -0.216 4.013071 0.4991985
v 0.216 4.013071 0.4991985
v -3 1.142694 -1.152459
v 3 1.142694 -1.152459
v -3 1.357306 -1.152459
v 3 1.357306 -1.152459
v -3 1 -1
v 3 1 -1
v -3 1.142694 -1.152459
v 3 1.142694 -1.152459
v 3 1.5 -1
v -3 1.5 -1
v 3 1.357306 -1.152459
v -3 1.357306 -1.152459

vn 0 0 1
vn 0 0 1
vn 0 0 1
vn 0 0 1
vn -1 0 0
vn -1 0 0
vn -1 0 0
vn -1 0 0
vn 0 0 -1
vn 0 0 -1
vn 0 0 -1
vn 0 0 -1
vn 1 0 0
vn 1 0 0
vn 1 0 0
vn 1 0 0
vn 0 -1 0
vn 0 -1 0
vn 0 -1 0
vn 0 -1 0
vn 0 0 1
vn 0 0 1
vn 1 0 0
vn 1 0 0
vn -1 0 0
vn -1 0 0
vn 0 0 1
vn 0 0 1
vn 1 0 0
vn 1 0 0
vn -1 0 0
vn -1 0 0
vn 0 0 -1
vn 0 0 -1
vn 0 0 -1
vn 0 0 -1
vn 0 -0.003735705 0.999993
vn 0 -0.003735705 0.999993
vn 0 -0.003735705 0.999993
vn 0 -0.003735705 0.999993
vn 1 0 0
vn 1 0 0
vn -1 0 0
vn -1 0 0
vn 0 0.9904587 -0.1378099
vn 0 0.9904587 -0.1378099
vn 0 0.9904587 -0.1378099
vn 0 0.9904587 -0.1378099
vn 0 0.4192228 0.9078834
vn 0 0.4192228 0.9078834
vn 0 0.4192228 0.9078834
vn 0 0.4192228 0.9078834
vn 1 0 0
vn 1 0 0
vn -1 0 0
vn -1 0 0
vn 0 0.5866132 -0.8098673
vn 0 0.5866132 -0.8098673
vn 0 0.5866132 -0.8098673
vn 0 0.5866132 -0.8098673
vn -1 0 0
vn -1 0 0
vn 1 0 0
vn 1 0 0
vn 0 0 1
vn 0 0 1
vn 0 0 1
vn 0 0 1
vn 0.00110717 0.9999994 0
vn 0.00110717 0.9999994 0
vn 0.00110717 0.9999994 0
vn 0.00110717 0.9999994 0
vn -0.00110717 0.9999994 0
vn -0.00110717 0.9999994 0
vn -0.00110717 0.9999994 0
vn -0.00110717 0.9999994 0
vn 0 0 -1
vn 0 0 -1
vn 0 0 -1
vn 0 0 -1
vn 0 0.419314 -0.9078414
vn 0 0.419314 -0.9078414
vn 0 0.419314 -0.9078414
vn 0 0.419314 -0.9078414
vn 0 0.04187118 0.999123
vn 0 0.04187118 0.9991231
vn 0 0.04187118 0.9991231
vn 0 0.04187118 0.999123
vn 0.519043 0.8547481 0
vn 0.5413165 0.8316932 -0.1235427
vn 0.5413165 0.8316932 -0.1235427
vn 0.5581593 0.718572 -0.4148643
vn -0.6042807 0.7967713 0
vn -0.5413165 0.8316932 -0.1235427
vn -0.5413165 0.8316932 -0.1235427
vn -0.2827592 0.8306854 -0.4795926
vn 0 0.6056654 -0.7957194
vn 0 0.6056654 -0.7957194
vn 0 0.6056654 -0.7957194
vn 0 0.6056654 -0.7957194
vn 0 0.8500561 0.5266925
vn 0 0.850056 0.5266925
vn 0 0.850056 0.5266925
vn 0 0.850056 0.5266925
vn 0.9788051 0.1773575 -0.1023966
vn 0.9850827 0.1265224 -0.1166368
vn 0.9850827 0.1265224 -0.1166368
vn 0.9890279 0.06194476 -0.1341142
vn -0.9861391 0.143692 -0.08295996
vn -0.9850827 0.1265223 -0.1166368
vn -0.9850827 0.1265223 -0.1166368
vn -0.9777525 0.08795611 -0.1904305
vn 0 -0.7113467 -0.7028412
vn 0 -0.7113468 -0.7028413
vn 0 -0.7113468 -0.7028413
vn 0 -0.7113467 -0.7028412
vn 0 0 -1
vn 0 0 -1
vn 0 0 -1
vn 0 0 -1
vn 0 -0.7301019 -0.6833382
vn 0 -0.7301019 -0.6833382
vn 0 -0.7301019 -0.6833382
vn 0 -0.7301019 -0.6833382
vn 0 0.7301019 -0.6833382
vn 0 0.7301019 -0.6833382
vn 0 0.7301019 -0.6833382
vn 0 0.7301019 -0.6833382

vt 3 0
vt -3 0
vt 3 1
vt -3 1
vt 1 0
vt -1 0
vt 1 1
vt -1 1
vt 3 0
vt -3 0
vt 3 1
vt -3 1
vt 1 0
vt -1 0
vt 1 1
vt -1 1
vt 3 -1
vt -3 -1
vt 3 1
vt -3 1
vt 3 1.5
vt -3 1.5
vt 1 1.5
vt -1 1.5
vt 1 1.5
vt -1 1.5
vt 3 3
vt -3 3
vt 1 3
vt -1 3
vt 1 3
vt -1 3
vt 3 1.5
vt -3 1.5
vt 3 3
vt -3 3
vt 3 3.003715
vt -3 3.003715
vt 3 3.170768
vt -3 3.170768
vt -0.2006241 3.167052
vt -1.000624 3.167052
vt 1.000624 3.167052
vt 0.2006241 3.167052
vt 3 -0.577029
vt -3 -0.577029
vt 3 0.635161
vt -3 0.635161
vt 3 2.455829
vt -3 2.455829
vt 3 2.756557
vt -3 2.756557
vt -0.3983856 3.440078
vt -0.874552 3.440078
vt 0.874552 3.440078
vt 0.3983856 3.440078
vt 3 2.68258
vt -3 2.68258
vt 3 3.019705
vt -3 3.019705
vt -1.152459 1.357306
vt -1.152459 1.142694
vt 1.152459 1.142694
vt 1.152459 1.357306
vt 3 3.440078
vt -3 3.440078
vt 0.9 3.442403
vt -0.9 3.442403
vt -2.996189 0.3983856
vt -2.996189 0.874552
vt -0.8961882 0.3983856
vt -0.8961882 0.874552
vt 2.996189 0.874552
vt 2.996189 0.3983856
vt 0.8961882 0.874552
vt 0.8961882 0.3983856
vt 3 3.440078
vt -3 3.440078
vt 0.9 3.442403
vt -0.9 3.442403
vt -0.216 3.961569
vt 0.216 3.961569
vt -0.216 3.852552
vt 0.216 3.852552
vt 0.9 3.402766
vt -0.9 3.402766
vt 0.27 3.880984
vt -0.27 3.880984
vt 1.017482 0.3983856
vt 1.017482 0.874552
vt 1.754541 0.6895771
vt 1.803972 0.8545284
vt -1.363084 0.874552
vt -1.363084 0.3983856
vt -2.153775 0.8545284
vt -2.096227 0.6895771
vt 0.9 2.980475
vt -0.9 2.980475
vt 0.27 3.461255
vt -0.27 3.461255
vt -0.27 -1.338344
vt 0.27 -1.338344
vt -0.216 -1.702576
vt 0.216 -1.702576
vt -0.7139269 3.729428
vt -0.8779829 3.826195
vt -0.518963 3.92056
vt -0.5644272 4.018805
vt 0.8741546 3.851153
vt 0.7097839 3.754921
vt 0.5611 4.045003
vt 0.5155486 3.94651
vt -0.27 -2.197817
vt 0.27 -2.197817
vt -0.216 -2.465448
vt 0.216 -2.465448
vt 3 1.142694
vt -3 1.142694
vt 3 1.357306
vt -3 1.357306
vt -3 -1.41344
vt 3 -1.41344
vt -3 -1.622259
vt 3 -1.622259
vt -3 0.2949055
vt 3 0.2949055
vt -3 0.0860865
vt 3 0.0860865

g TexturesCom_ConcreteFence0027_1_seamless_S
usemtl TexturesCom_ConcreteFence0027_1_seamless_S
usemap TexturesCom_ConcreteFence0027_1_seamless_S
f 2/2/2 1/1/1 3/3/3
f 4/4/4 2/2/2 3/3/3
f 6/6/6 5/5/5 7/7/7
f 8/8/8 6/6/6 7/7/7
f 10/10/10 9/9/9 11/11/11
f 12/12/12 10/10/10 11/11/11
f 14/14/14 13/13/13 15/15/15
f 16/16/16 14/14/14 15/15/15
f 18/18/18 17/17/17 19/19/19
f 20/20/20 18/18/18 19/19/19
f 4/4/4 3/3/3 21/21/21
f 22/22/22 4/4/4 21/21/21
f 16/16/16 15/15/15 23/23/23
f 24/24/24 16/16/16 23/23/23
f 8/8/8 7/7/7 25/25/25
f 26/26/26 8/8/8 25/25/25
f 22/22/22 21/21/21 27/27/27
f 28/28/28 22/22/22 27/27/27
f 24/24/24 23/23/23 29/29/29
f 30/30/30 24/24/24 29/29/29
f 26/26/26 25/25/25 31/31/31
f 32/32/32 26/26/26 31/31/31
f 34/34/34 33/33/33 35/35/35
f 36/36/36 34/34/34 35/35/35
f 38/38/38 37/37/37 39/39/39
f 40/40/40 38/38/38 39/39/39
f 30/30/30 29/29/29 41/41/41
f 42/42/42 30/30/30 41/41/41
f 32/32/32 31/31/31 43/43/43
f 44/44/44 32/32/32 43/43/43
f 46/46/46 45/45/45 47/47/47
f 48/48/48 46/46/46 47/47/47
f 50/50/50 49/49/49 51/51/51
f 52/52/52 50/50/50 51/51/51
f 42/42/42 41/41/41 53/53/53
f 54/54/54 42/42/42 53/53/53
f 44/44/44 43/43/43 55/55/55
f 56/56/56 44/44/44 55/55/55
f 58/58/58 57/57/57 59/59/59
f 60/60/60 58/58/58 59/59/59
f 8/8/8 26/26/26 61/61/61
f 62/62/62 8/8/8 61/61/61
f 23/23/23 15/15/15 63/63/63
f 64/64/64 23/23/23 63/63/63
f 66/66/66 65/65/65 67/67/67
f 68/68/68 66/66/66 67/67/67
f 70/70/70 69/69/69 71/71/71
f 72/72/72 70/70/70 71/71/71
f 74/74/74 73/73/73 75/75/75
f 76/76/76 74/74/74 75/75/75
f 78/78/78 77/77/77 79/79/79
f 80/80/80 78/78/78 79/79/79

g TexturesCom_ConcreteBare0398_7_seamless_S
usemtl TexturesCom_ConcreteBare0398_7_seamless_S
usemap TexturesCom_ConcreteBare0398_7_seamless_S
f 82/82/82 81/81/81 83/83/83
f 84/84/84 82/82/82 83/83/83
f 86/86/86 85/85/85 87/87/87
f 88/88/88 86/86/86 87/87/87
f 90/90/90 89/89/89 91/91/91
f 92/92/92 90/90/90 91/91/91
f 94/94/94 93/93/93 95/95/95
f 96/96/96 94/94/94 95/95/95
f 98/98/98 97/97/97 99/99/99
f 100/100/100 98/98/98 99/99/99
f 102/102/102 101/101/101 103/103/103
f 104/104/104 102/102/102 103/103/103
f 106/106/106 105/105/105 107/107/107
f 108/108/108 106/106/106 107/107/107
f 110/110/110 109/109/109 111/111/111
f 112/112/112 110/110/110 111/111/111
f 114/114/114 113/113/113 115/115/115
f 116/116/116 114/114/114 115/115/115

g TexturesCom_BrickMessy0175_2_M
usemtl TexturesCom_BrickMessy0175_2_M
usemap TexturesCom_BrickMessy0175_2_M
f 118/118/118 117/117/117 119/119/119
f 120/120/120 118/118/118 119/119/119
f 122/122/122 121/121/121 123/123/123
f 124/124/124 122/122/122 123/123/123
f 126/126/126 125/125/125 127/127/127
f 128/128/128 126/126/126 127/127/127
