mtllib ./pb44962.mtl
g Base
v -0.8099999 0.1120002 -1.415611E-09
v -0.8099999 7.888 -1.415611E-09
v -0.5727564 0.1120002 0.5727564
v -0.5727564 7.888 0.5727564
v -0.5727564 0.1120002 0.5727564
v -0.5727564 7.888 0.5727564
v 3.483501E-08 0.1120002 0.8099999
v 3.483501E-08 7.888 0.8099999
v 3.483501E-08 0.1120002 0.8099999
v 3.483501E-08 7.888 0.8099999
v 0.5727564 0.1120002 0.5727564
v 0.5727564 7.888 0.5727564
v 0.5727564 0.1120002 0.5727564
v 0.5727564 7.888 0.5727564
v 0.8099999 0.1120002 -7.222805E-08
v 0.8099999 7.888 -7.222805E-08
v 0.8099999 0.1120002 -7.222805E-08
v 0.8099999 7.888 -7.222805E-08
v 0.5727565 0.1120002 -0.5727564
v 0.5727565 7.888 -0.5727564
v 0.5727565 0.1120002 -0.5727564
v 0.5727565 7.888 -0.5727564
v -1.023036E-08 0.1120002 -0.8099999
v -1.023036E-08 7.888 -0.8099999
v -1.023036E-08 0.1120002 -0.8099999
v -1.023036E-08 7.888 -0.8099999
v -0.5727564 0.1120002 -0.5727565
v -0.5727564 7.888 -0.5727565
v -0.5727564 0.1120002 -0.5727565
v -0.5727564 7.888 -0.5727565
v -0.8099999 0.1120002 -1.415611E-09
v -0.8099999 7.888 -1.415611E-09
v -0.7071068 -1 0.7071068
v 0 -1 0
v -1 -1 0
v 4.371139E-08 -1 1
v 0.7071068 -1 0.7071068
v 1 -1 -8.742278E-08
v 0.7071068 -1 -0.7071067
v -1.192488E-08 -1 -1
v -0.7071066 -1 -0.7071069
v -1 8.5 0
v 0 8.5 0
v -0.7071068 8.5 0.7071068
v 4.371139E-08 8.5 1
v 0.7071068 8.5 0.7071068
v 1 8.5 -8.742278E-08
v 0.7071068 8.5 -0.7071067
v -1.192488E-08 8.5 -1
v -0.7071066 8.5 -0.7071069
v -0.5727564 7.888 -0.5727565
v -1.023036E-08 7.888 -0.8099999
v -0.7071066 8.5 -0.7071069
v -1.192488E-08 8.5 -1
v -0.8099999 7.888 -1.415611E-09
v -0.5727564 7.888 -0.5727565
v -1 8.5 0
v -0.7071066 8.5 -0.7071069
v -1.023036E-08 7.888 -0.8099999
v 0.5727565 7.888 -0.5727564
v -1.192488E-08 8.5 -1
v 0.7071068 8.5 -0.7071067
v 0.5727565 7.888 -0.5727564
v 0.8099999 7.888 -7.222805E-08
v 0.7071068 8.5 -0.7071067
v 1 8.5 -8.742278E-08
v 0.8099999 7.888 -7.222805E-08
v 0.5727564 7.888 0.5727564
v 1 8.5 -8.742278E-08
v 0.7071068 8.5 0.7071068
v 0.5727564 7.888 0.5727564
v 3.483501E-08 7.888 0.8099999
v 0.7071068 8.5 0.7071068
v 4.371139E-08 8.5 1
v 3.483501E-08 7.888 0.8099999
v -0.5727564 7.888 0.5727564
v 4.371139E-08 8.5 1
v -0.7071068 8.5 0.7071068
v -0.5727564 7.888 0.5727564
v -0.8099999 7.888 -1.415611E-09
v -0.7071068 8.5 0.7071068
v -1 8.5 0
v -0.8099999 0.1120002 -1.415611E-09
v -0.5727564 0.1120002 0.5727564
v -1 -0.5 0
v -0.7071068 -0.5 0.7071068
v -0.5727564 0.1120002 -0.5727565
v -0.8099999 0.1120002 -1.415611E-09
v -0.7071066 -0.5 -0.7071069
v -1 -0.5 0
v -0.5727564 0.1120002 0.5727564
v 3.483501E-08 0.1120002 0.8099999
v -0.7071068 -0.5 0.7071068
v 4.371139E-08 -0.5 1
v 3.483501E-08 0.1120002 0.8099999
v 0.5727564 0.1120002 0.5727564
v 4.371139E-08 -0.5 1
v 0.7071068 -0.5 0.7071068
v 0.5727564 0.1120002 0.5727564
v 0.8099999 0.1120002 -7.222805E-08
v 0.7071068 -0.5 0.7071068
v 1 -0.5 -8.742278E-08
v 0.8099999 0.1120002 -7.222805E-08
v 0.5727565 0.1120002 -0.5727564
v 1 -0.5 -8.742278E-08
v 0.7071068 -0.5 -0.7071067
v 0.5727565 0.1120002 -0.5727564
v -1.023036E-08 0.1120002 -0.8099999
v 0.7071068 -0.5 -0.7071067
v -1.192488E-08 -0.5 -1
v -1.023036E-08 0.1120002 -0.8099999
v -0.5727564 0.1120002 -0.5727565
v -1.192488E-08 -0.5 -1
v -0.7071066 -0.5 -0.7071069
v -1 -0.5 0
v -0.7071068 -0.5 0.7071068
v -1 -1 0
v -0.7071068 -1 0.7071068
v -0.7071066 -0.5 -0.7071069
v -1 -0.5 0
v -0.7071066 -1 -0.7071069
v -1 -1 0
v -0.7071068 -0.5 0.7071068
v 4.371139E-08 -0.5 1
v -0.7071068 -1 0.7071068
v 4.371139E-08 -1 1
v 4.371139E-08 -0.5 1
v 0.7071068 -0.5 0.7071068
v 4.371139E-08 -1 1
v 0.7071068 -1 0.7071068
v 0.7071068 -0.5 0.7071068
v 1 -0.5 -8.742278E-08
v 0.7071068 -1 0.7071068
v 1 -1 -8.742278E-08
v 1 -0.5 -8.742278E-08
v 0.7071068 -0.5 -0.7071067
v 1 -1 -8.742278E-08
v 0.7071068 -1 -0.7071067
v 0.7071068 -0.5 -0.7071067
v -1.192488E-08 -0.5 -1
v 0.7071068 -1 -0.7071067
v -1.192488E-08 -1 -1
v -1.192488E-08 -0.5 -1
v -0.7071066 -0.5 -0.7071069
v -1.192488E-08 -1 -1
v -0.7071066 -1 -0.7071069

vn -0.9238794 0 -1.490116E-08
vn -0.9238794 0 -1.490116E-08
vn -0.6532815 0 0.6532815
vn -0.6532815 0 0.6532815
vn -0.6532815 0 0.6532815
vn -0.6532815 0 0.6532815
vn 4.470348E-08 0 0.9238795
vn 4.470348E-08 0 0.9238795
vn 4.470348E-08 0 0.9238795
vn 4.470348E-08 0 0.9238795
vn 0.6532815 0 0.6532815
vn 0.6532815 0 0.6532815
vn 0.6532815 0 0.6532815
vn 0.6532815 0 0.6532815
vn 0.9238795 0 0
vn 0.9238795 0 0
vn 0.9238795 0 0
vn 0.9238795 0 0
vn 0.6532815 0 -0.6532815
vn 0.6532815 0 -0.6532815
vn 0.6532815 0 -0.6532815
vn 0.6532815 0 -0.6532815
vn 4.470348E-08 0 -0.9238795
vn 4.470348E-08 0 -0.9238795
vn 4.470348E-08 0 -0.9238795
vn 4.470348E-08 0 -0.9238795
vn -0.6532814 0 -0.6532816
vn -0.6532814 0 -0.6532816
vn -0.6532814 0 -0.6532816
vn -0.6532814 0 -0.6532816
vn -0.9238794 0 -1.490116E-08
vn -0.9238794 0 -1.490116E-08
vn 0 -0.9999999 0
vn 0 -0.9999999 0
vn 0 -0.9999999 0
vn 0 -0.9999999 0
vn 0 -0.9999999 0
vn 0 -0.9999999 0
vn 0 -0.9999999 0
vn 0 -0.9999999 0
vn 0 -0.9999999 0
vn 0 0.9999999 0
vn 0 0.9999999 0
vn 0 0.9999999 0
vn 0 0.9999999 0
vn 0 0.9999999 0
vn 0 0.9999999 0
vn 0 0.9999999 0
vn 0 0.9999999 0
vn 0 0.9999999 0
vn -0.3678511 -0.2757083 -0.8880712
vn -0.3678511 -0.2757083 -0.8880712
vn -0.3678511 -0.2757083 -0.8880712
vn -0.3678511 -0.2757083 -0.8880712
vn -0.8880712 -0.2757083 -0.3678513
vn -0.8880712 -0.2757083 -0.3678512
vn -0.8880712 -0.2757083 -0.3678512
vn -0.8880712 -0.2757083 -0.3678512
vn 0.3678512 -0.2757083 -0.8880712
vn 0.3678512 -0.2757082 -0.8880712
vn 0.3678512 -0.2757082 -0.8880712
vn 0.3678512 -0.2757082 -0.8880712
vn 0.8880712 -0.2757083 -0.3678511
vn 0.8880712 -0.2757083 -0.3678511
vn 0.8880712 -0.2757083 -0.3678511
vn 0.8880712 -0.2757083 -0.3678511
vn 0.8880712 -0.2757083 0.3678512
vn 0.8880712 -0.2757083 0.3678511
vn 0.8880712 -0.2757083 0.3678511
vn 0.8880712 -0.2757083 0.3678511
vn 0.3678512 -0.2757083 0.8880711
vn 0.3678512 -0.2757083 0.8880712
vn 0.3678512 -0.2757083 0.8880712
vn 0.3678512 -0.2757083 0.8880713
vn -0.3678512 -0.2757083 0.8880712
vn -0.3678511 -0.2757083 0.8880712
vn -0.3678511 -0.2757083 0.8880712
vn -0.3678511 -0.2757083 0.8880712
vn -0.8880712 -0.2757083 0.3678512
vn -0.8880712 -0.2757083 0.3678512
vn -0.8880712 -0.2757083 0.3678512
vn -0.8880711 -0.2757083 0.3678511
vn -0.8880711 0.2757083 0.3678512
vn -0.8880711 0.2757084 0.3678512
vn -0.8880711 0.2757084 0.3678512
vn -0.8880712 0.2757084 0.3678512
vn -0.8880712 0.2757083 -0.3678512
vn -0.8880712 0.2757083 -0.3678513
vn -0.8880712 0.2757083 -0.3678513
vn -0.8880712 0.2757083 -0.3678513
vn -0.3678512 0.2757084 0.8880712
vn -0.3678512 0.2757084 0.8880712
vn -0.3678512 0.2757084 0.8880712
vn -0.3678511 0.2757084 0.8880712
vn 0.3678513 0.2757083 0.8880711
vn 0.3678512 0.2757084 0.8880711
vn 0.3678512 0.2757084 0.8880711
vn 0.3678512 0.2757084 0.8880711
vn 0.8880712 0.2757084 0.3678512
vn 0.8880712 0.2757084 0.3678512
vn 0.8880712 0.2757084 0.3678512
vn 0.8880712 0.2757084 0.3678511
vn 0.8880711 0.2757083 -0.3678511
vn 0.8880712 0.2757084 -0.3678512
vn 0.8880712 0.2757084 -0.3678512
vn 0.8880712 0.2757084 -0.3678512
vn 0.3678512 0.2757084 -0.8880712
vn 0.3678512 0.2757083 -0.8880711
vn 0.3678512 0.2757083 -0.8880711
vn 0.3678512 0.2757084 -0.8880712
vn -0.3678511 0.2757084 -0.8880712
vn -0.3678511 0.2757084 -0.8880712
vn -0.3678511 0.2757084 -0.8880712
vn -0.367851 0.2757084 -0.8880712
vn -0.9238796 0 0.3826835
vn -0.9238796 0 0.3826835
vn -0.9238796 0 0.3826835
vn -0.9238796 0 0.3826835
vn -0.9238794 0 -0.3826835
vn -0.9238794 0 -0.3826835
vn -0.9238794 0 -0.3826835
vn -0.9238794 0 -0.3826835
vn -0.3826834 0 0.9238796
vn -0.3826834 0 0.9238796
vn -0.3826834 0 0.9238796
vn -0.3826834 0 0.9238796
vn 0.3826835 0 0.9238796
vn 0.3826835 0 0.9238796
vn 0.3826835 0 0.9238796
vn 0.3826835 0 0.9238796
vn 0.9238796 0 0.3826834
vn 0.9238796 0 0.3826834
vn 0.9238796 0 0.3826834
vn 0.9238796 0 0.3826834
vn 0.9238795 0 -0.3826834
vn 0.9238795 0 -0.3826834
vn 0.9238795 0 -0.3826834
vn 0.9238795 0 -0.3826834
vn 0.3826835 0 -0.9238796
vn 0.3826835 0 -0.9238796
vn 0.3826835 0 -0.9238796
vn 0.3826835 0 -0.9238796
vn -0.3826833 0 -0.9238795
vn -0.3826833 0 -0.9238795
vn -0.3826833 0 -0.9238795
vn -0.3826833 0 -0.9238795

vt -0.3099736 0.1120002
vt -0.3099736 7.888
vt 0.3099735 0.1120002
vt 0.3099735 7.888
vt -0.3099735 0.1120002
vt -0.3099735 7.888
vt 0.3099736 0.1120002
vt 0.3099736 7.888
vt -0.3099736 0.1120002
vt -0.3099736 7.888
vt 0.3099735 0.1120002
vt 0.3099735 7.888
vt -0.3099735 0.1120002
vt -0.3099735 7.888
vt 0.3099737 0.1120002
vt 0.3099737 7.888
vt -0.3099735 0.1120002
vt -0.3099735 7.888
vt 0.3099735 0.1120002
vt 0.3099735 7.888
vt -0.3099736 0.1120002
vt -0.3099736 7.888
vt 0.3099736 0.1120002
vt 0.3099736 7.888
vt -0.3099735 0.1120002
vt -0.3099735 7.888
vt 0.3099735 0.1120002
vt 0.3099735 7.888
vt -0.3099736 0.1120002
vt -0.3099736 7.888
vt 0.3099736 0.1120002
vt 0.3099736 7.888
vt -0.7071068 0.7071068
vt 0 0
vt -1 0
vt 4.371139E-08 1
vt 0.7071068 0.7071068
vt 1 -8.742278E-08
vt 0.7071068 -0.7071067
vt -1.192488E-08 -1
vt -0.7071066 -0.7071069
vt 1 0
vt 0 0
vt 0.7071068 0.7071068
vt -4.371139E-08 1
vt -0.7071068 0.7071068
vt -1 -8.742278E-08
vt -0.7071068 -0.7071067
vt 1.192488E-08 -1
vt 0.7071066 -0.7071069
vt 0.3099735 7.788596
vt -0.3099735 7.788596
vt 0.3826833 8.425273
vt -0.3826834 8.425273
vt 0.3099737 7.788596
vt -0.3099736 7.788596
vt 0.3826835 8.425273
vt -0.3826835 8.425273
vt 0.3099736 7.788596
vt -0.3099735 7.788596
vt 0.3826835 8.425273
vt -0.3826835 8.425273
vt 0.3099735 7.788596
vt -0.3099735 7.788596
vt 0.3826834 8.425273
vt -0.3826834 8.425273
vt 0.3099737 7.788596
vt -0.3099735 7.788596
vt 0.3826836 8.425273
vt -0.3826834 8.425273
vt 0.3099734 7.788596
vt -0.3099736 7.788596
vt 0.3826833 8.425273
vt -0.3826835 8.425273
vt 0.3099736 7.788596
vt -0.3099735 7.788596
vt 0.3826835 8.425273
vt -0.3826834 8.425273
vt 0.3099735 7.788596
vt -0.3099736 7.788596
vt 0.3826833 8.425273
vt -0.3826835 8.425273
vt -0.3099736 -0.09866498
vt 0.3099735 -0.09866498
vt -0.3826835 -0.735342
vt 0.3826833 -0.735342
vt -0.3099736 -0.09866498
vt 0.3099736 -0.09866498
vt -0.3826835 -0.735342
vt 0.3826835 -0.735342
vt -0.3099735 -0.09866504
vt 0.3099736 -0.09866504
vt -0.3826834 -0.7353421
vt 0.3826835 -0.735342
vt -0.3099736 -0.09866498
vt 0.3099734 -0.09866498
vt -0.3826835 -0.735342
vt 0.3826833 -0.735342
vt -0.3099735 -0.09866504
vt 0.3099737 -0.09866504
vt -0.3826834 -0.7353421
vt 0.3826836 -0.735342
vt -0.3099735 -0.09866501
vt 0.3099735 -0.09866501
vt -0.3826834 -0.735342
vt 0.3826834 -0.735342
vt -0.3099735 -0.09866498
vt 0.3099736 -0.09866498
vt -0.3826835 -0.735342
vt 0.3826835 -0.735342
vt -0.3099735 -0.098665
vt 0.3099735 -0.09866499
vt -0.3826834 -0.735342
vt 0.3826833 -0.735342
vt -0.3826835 -0.5
vt 0.3826834 -0.5
vt -0.3826835 -1
vt 0.3826834 -1
vt -0.3826835 -0.5
vt 0.3826835 -0.5
vt -0.3826835 -1
vt 0.3826835 -1
vt -0.3826835 -0.5
vt 0.3826835 -0.5
vt -0.3826835 -1
vt 0.3826835 -1
vt -0.3826835 -0.5
vt 0.3826834 -0.5
vt -0.3826835 -1
vt 0.3826834 -1
vt -0.3826835 -0.5
vt 0.3826835 -0.5
vt -0.3826835 -1
vt 0.3826835 -1
vt -0.3826834 -0.5
vt 0.3826834 -0.5
vt -0.3826834 -1
vt 0.3826834 -1
vt -0.3826835 -0.5
vt 0.3826835 -0.5
vt -0.3826835 -1
vt 0.3826835 -1
vt -0.3826834 -0.5
vt 0.3826833 -0.5
vt -0.3826834 -1
vt 0.3826833 -1

g TexturesCom_BrickMessy0175_2_M
usemtl TexturesCom_BrickMessy0175_2_M
usemap TexturesCom_BrickMessy0175_2_M
f 2/2/2 1/1/1 3/3/3
f 4/4/4 2/2/2 3/3/3
f 6/6/6 5/5/5 7/7/7
f 8/8/8 6/6/6 7/7/7
f 10/10/10 9/9/9 11/11/11
f 12/12/12 10/10/10 11/11/11
f 14/14/14 13/13/13 15/15/15
f 16/16/16 14/14/14 15/15/15
f 18/18/18 17/17/17 19/19/19
f 20/20/20 18/18/18 19/19/19
f 22/22/22 21/21/21 23/23/23
f 24/24/24 22/22/22 23/23/23
f 26/26/26 25/25/25 27/27/27
f 28/28/28 26/26/26 27/27/27
f 30/30/30 29/29/29 31/31/31
f 32/32/32 30/30/30 31/31/31
f 34/34/34 33/33/33 35/35/35
f 34/34/34 36/36/36 33/33/33
f 34/34/34 37/37/37 36/36/36
f 34/34/34 38/38/38 37/37/37
f 34/34/34 39/39/39 38/38/38
f 34/34/34 40/40/40 39/39/39
f 34/34/34 41/41/41 40/40/40
f 34/34/34 35/35/35 41/41/41
f 43/43/43 42/42/42 44/44/44
f 43/43/43 44/44/44 45/45/45
f 43/43/43 45/45/45 46/46/46
f 43/43/43 46/46/46 47/47/47
f 43/43/43 47/47/47 48/48/48
f 43/43/43 48/48/48 49/49/49
f 43/43/43 49/49/49 50/50/50
f 43/43/43 50/50/50 42/42/42
f 52/52/52 51/51/51 53/53/53
f 54/54/54 52/52/52 53/53/53
f 56/56/56 55/55/55 57/57/57
f 58/58/58 56/56/56 57/57/57
f 60/60/60 59/59/59 61/61/61
f 62/62/62 60/60/60 61/61/61
f 64/64/64 63/63/63 65/65/65
f 66/66/66 64/64/64 65/65/65
f 68/68/68 67/67/67 69/69/69
f 70/70/70 68/68/68 69/69/69
f 72/72/72 71/71/71 73/73/73
f 74/74/74 72/72/72 73/73/73
f 76/76/76 75/75/75 77/77/77
f 78/78/78 76/76/76 77/77/77
f 80/80/80 79/79/79 81/81/81
f 82/82/82 80/80/80 81/81/81
f 84/84/84 83/83/83 85/85/85
f 86/86/86 84/84/84 85/85/85
f 88/88/88 87/87/87 89/89/89
f 90/90/90 88/88/88 89/89/89
f 92/92/92 91/91/91 93/93/93
f 94/94/94 92/92/92 93/93/93
f 96/96/96 95/95/95 97/97/97
f 98/98/98 96/96/96 97/97/97
f 100/100/100 99/99/99 101/101/101
f 102/102/102 100/100/100 101/101/101
f 104/104/104 103/103/103 105/105/105
f 106/106/106 104/104/104 105/105/105
f 108/108/108 107/107/107 109/109/109
f 110/110/110 108/108/108 109/109/109
f 112/112/112 111/111/111 113/113/113
f 114/114/114 112/112/112 113/113/113
f 116/116/116 115/115/115 117/117/117
f 118/118/118 116/116/116 117/117/117
f 120/120/120 119/119/119 121/121/121
f 122/122/122 120/120/120 121/121/121
f 124/124/124 123/123/123 125/125/125
f 126/126/126 124/124/124 125/125/125
f 128/128/128 127/127/127 129/129/129
f 130/130/130 128/128/128 129/129/129
f 132/132/132 131/131/131 133/133/133
f 134/134/134 132/132/132 133/133/133
f 136/136/136 135/135/135 137/137/137
f 138/138/138 136/136/136 137/137/137
f 140/140/140 139/139/139 141/141/141
f 142/142/142 140/140/140 141/141/141
f 144/144/144 143/143/143 145/145/145
f 146/146/146 144/144/144 145/145/145
