mtllib ./pb-77872.mtl
g Plane 4
v 0 0 0
v 0 0 1.25
v -1.25 0 0
v -1.25 0 1.25
v 0 0 2.5
v -1.25 0 2.5
v 0 0 3.75
v -1.25 0 3.75
v 0 0 5
v -1.25 0 5
v -2.5 0 1.25
v -2.5 0 2.5
v -2.5 0 3.75
v -3.75 0 1.25
v -3.75 0 2.5
v -3.75 0 3.75
v -3.75 0 0
v -5 0 0
v -5 0 1.25
v -5 0 2.5
v -5 0 3.75
v -3.75 0 5
v -5 0 5
v -1.25 0 5
v -2.5 0 5
v -1.375 0.1384192 5
v -2.5 0.1384192 5
v -3.75 0 5
v -3.625 0.1384192 5
v -2.5 0 0
v -1.25 0 0
v -2.5 0.1384192 0
v -1.375 0.1384192 0
v -3.75 0 0
v -3.625 0.1384192 0
v -1.375 0.1384192 0
v -1.375 0.1384192 1.05
v -2.5 0.1384192 0
v -2.5 0.1384192 1.05
v -1.375 0.1384192 3.95
v -1.375 0.1384192 5
v -2.5 0.1384192 3.95
v -2.5 0.1384192 5
v -3.625 0.1384192 0
v -3.625 0.1384192 1.05
v -3.625 0.1384192 3.95
v -3.625 0.1384192 5
v -1.25 0 3.75
v -1.25 0 5
v -1.375 0.1384192 3.95
v -1.375 0.1384192 5
v -2.5 0 3.75
v -1.25 0 3.75
v -2.5 0.1384192 3.95
v -1.375 0.1384192 3.95
v -3.75 0 3.75
v -3.625 0.1384192 3.95
v -3.75 0 5
v -3.75 0 3.75
v -3.625 0.1384192 5
v -3.625 0.1384192 3.95
v -1.25 0 0
v -1.25 0 1.25
v -1.375 0.1384192 0
v -1.375 0.1384192 1.05
v -1.25 0 1.25
v -2.5 0 1.25
v -1.375 0.1384192 1.05
v -2.5 0.1384192 1.05
v -3.75 0 1.25
v -3.625 0.1384192 1.05
v -3.75 0 1.25
v -3.75 0 0
v -3.625 0.1384192 1.05
v -3.625 0.1384192 0

vn 0 1 0
vn 0 1 0
vn 0 1 0
vn 0 1 0
vn 0 1 0
vn 0 1 0
vn 0 1 0
vn 0 1 0
vn 0 1 0
vn 0 1 0
vn 0 1 0
vn 0 1 0
vn 0 1 0
vn 0 1 0
vn 0 1 0
vn 0 1 0
vn 0 1 0
vn 0 1 0
vn 0 1 0
vn 0 1 0
vn 0 1 0
vn 0 1 0
vn 0 1 0
vn 0 0 1
vn 0 0 0.9999999
vn 0 0 0.9999999
vn 0 0 1
vn 0 0 0.9999999
vn 0 0 1
vn 0 0 -1
vn 0 0 -0.9999999
vn 0 0 -0.9999999
vn 0 0 -1
vn 0 0 -1
vn 0 0 -0.9999999
vn 0 0.9999999 0
vn 0 0.9999999 0
vn 0 0.9999999 0
vn 0 0.9999999 0
vn 0 0.9999999 0
vn 0 0.9999999 0
vn 0 0.9999999 0
vn 0 0.9999999 0
vn 0 0.9999999 0
vn 0 0.9999999 0
vn 0 0.9999999 0
vn 0 0.9999999 0
vn 0.742166 0.6702161 0
vn 0.742166 0.6702162 0
vn 0.742166 0.6702162 0
vn 0.7421659 0.6702161 0
vn 0 0.8222739 -0.5690921
vn 0 0.8222738 -0.5690921
vn 0 0.8222738 -0.5690921
vn 0 0.8222738 -0.5690921
vn 0 0.8222739 -0.5690921
vn 0 0.8222738 -0.5690921
vn -0.742166 0.6702161 0
vn -0.742166 0.6702162 0
vn -0.742166 0.6702162 0
vn -0.7421659 0.6702161 0
vn 0.742166 0.6702161 0
vn 0.742166 0.6702162 0
vn 0.742166 0.6702162 0
vn 0.7421659 0.6702161 0
vn 0 0.8222739 0.5690921
vn 0 0.8222738 0.5690921
vn 0 0.8222738 0.5690921
vn 0 0.8222738 0.5690921
vn 0 0.8222738 0.5690921
vn 0 0.8222738 0.5690921
vn -0.742166 0.6702161 0
vn -0.742166 0.6702162 0
vn -0.742166 0.6702162 0
vn -0.7421659 0.6702161 0

vt 0 0
vt 0 1.25
vt 1.25 0
vt 1.25 1.25
vt 0 2.5
vt 1.25 2.5
vt 0 3.75
vt 1.25 3.75
vt 0 5
vt 1.25 5
vt 2.5 1.25
vt 2.5 2.5
vt 2.5 3.75
vt 3.75 1.25
vt 3.75 2.5
vt 3.75 3.75
vt 3.75 0
vt 5 0
vt 5 1.25
vt 5 2.5
vt 5 3.75
vt 3.75 5
vt 5 5
vt -1.25 0
vt -2.5 0
vt -1.375 0.1384192
vt -2.5 0.1384192
vt -3.75 0
vt -3.625 0.1384192
vt 2.5 0
vt 1.25 0
vt 2.5 0.1384192
vt 1.375 0.1384192
vt 3.75 0
vt 3.625 0.1384192
vt 1.375 0
vt 1.375 1.05
vt 2.5 0
vt 2.5 1.05
vt 1.375 3.95
vt 1.375 5
vt 2.5 3.95
vt 2.5 5
vt 3.625 0
vt 3.625 1.05
vt 3.625 3.95
vt 3.625 5
vt -3.75 0.8377702
vt -5 0.8377702
vt -3.95 1.024277
vt -5 1.024277
vt 2.5 3.083527
vt 1.25 3.083527
vt 2.5 3.326755
vt 1.375 3.326755
vt 3.75 3.083527
vt 3.625 3.326755
vt 5 -2.51331
vt 3.75 -2.51331
vt 5 -2.326803
vt 3.95 -2.326803
vt 0 0.8377702
vt -1.25 0.8377702
vt 0 1.024277
vt -1.05 1.024277
vt 1.25 1.027842
vt 2.5 1.027842
vt 1.375 0.7846143
vt 2.5 0.7846143
vt 3.75 1.027842
vt 3.625 0.7846143
vt 1.25 -2.51331
vt 0 -2.51331
vt 1.05 -2.326803
vt 0 -2.326803

g TexturesCom_ConcreteBare0398_7_seamless_S
usemtl TexturesCom_ConcreteBare0398_7_seamless_S
usemap TexturesCom_ConcreteBare0398_7_seamless_S
f 2/2/2 1/1/1 3/3/3
f 4/4/4 2/2/2 3/3/3
f 5/5/5 2/2/2 4/4/4
f 6/6/6 5/5/5 4/4/4
f 7/7/7 5/5/5 6/6/6
f 8/8/8 7/7/7 6/6/6
f 9/9/9 7/7/7 8/8/8
f 10/10/10 9/9/9 8/8/8
f 6/6/6 4/4/4 11/11/11
f 12/12/12 6/6/6 11/11/11
f 8/8/8 6/6/6 12/12/12
f 13/13/13 8/8/8 12/12/12
f 12/12/12 11/11/11 14/14/14
f 15/15/15 12/12/12 14/14/14
f 13/13/13 12/12/12 15/15/15
f 16/16/16 13/13/13 15/15/15
f 14/14/14 17/17/17 18/18/18
f 19/19/19 14/14/14 18/18/18
f 15/15/15 14/14/14 19/19/19
f 20/20/20 15/15/15 19/19/19
f 16/16/16 15/15/15 20/20/20
f 21/21/21 16/16/16 20/20/20
f 22/22/22 16/16/16 21/21/21
f 23/23/23 22/22/22 21/21/21
f 25/25/25 24/24/24 26/26/26
f 27/27/27 25/25/25 26/26/26
f 28/28/28 25/25/25 27/27/27
f 29/29/29 28/28/28 27/27/27
f 31/31/31 30/30/30 32/32/32
f 33/33/33 31/31/31 32/32/32
f 30/30/30 34/34/34 35/35/35
f 32/32/32 30/30/30 35/35/35

g TexturesCom_ConcreteRough0076_1_seamless_S
usemtl TexturesCom_ConcreteRough0076_1_seamless_S
usemap TexturesCom_ConcreteRough0076_1_seamless_S
f 37/37/37 36/36/36 38/38/38
f 39/39/39 37/37/37 38/38/38
f 41/41/41 40/40/40 42/42/42
f 43/43/43 41/41/41 42/42/42
f 39/39/39 38/38/38 44/44/44
f 45/45/45 39/39/39 44/44/44
f 43/43/43 42/42/42 46/46/46
f 47/47/47 43/43/43 46/46/46
f 49/49/49 48/48/48 50/50/50
f 51/51/51 49/49/49 50/50/50
f 53/53/53 52/52/52 54/54/54
f 55/55/55 53/53/53 54/54/54
f 52/52/52 56/56/56 57/57/57
f 54/54/54 52/52/52 57/57/57
f 59/59/59 58/58/58 60/60/60
f 61/61/61 59/59/59 60/60/60
f 63/63/63 62/62/62 64/64/64
f 65/65/65 63/63/63 64/64/64
f 67/67/67 66/66/66 68/68/68
f 69/69/69 67/67/67 68/68/68
f 70/70/70 67/67/67 69/69/69
f 71/71/71 70/70/70 69/69/69
f 73/73/73 72/72/72 74/74/74
f 75/75/75 73/73/73 74/74/74
