mtllib ./pb45086.mtl
g Stairs 0
v 0 0 0
v 5 0 0
v 0 0.5 0
v 5 0.5 0
v 0 0.5 0
v 5 0.5 0
v 0 0.5 1
v 5 0.5 1
v 0 0.5 1
v 5 0.5 1
v 0 1 1
v 5 1 1
v 0 1 1
v 5 1 1
v 0 1 2
v 5 1 2
v 0 1 2
v 5 1 2
v 0 1.5 2
v 5 1.5 2
v 0 1.5 2
v 5 1.5 2
v 0 1.5 3
v 5 1.5 3
v 0 1.5 3
v 5 1.5 3
v 0 2 3
v 5 2 3
v 0 2 3
v 5 2 3
v 0 2 4
v 5 2 4
v 0 2 4
v 5 2 4
v 0 2.5 4
v 5 2.5 4
v 0 2.5 4
v 5 2.5 4
v 0 2.5 5
v 5 2.5 5
v 0 2.5 5
v 5 2.5 5
v 0 3 5
v 5 3 5
v 0 3 5
v 5 3 5
v 0 3 6
v 5 3 6
v 0 3 6
v 5 3 6
v 0 3.5 6
v 5 3.5 6
v 0 3.5 6
v 5 3.5 6
v 0 3.5 7
v 5 3.5 7
v 0 3.5 7
v 5 3.5 7
v 0 4 7
v 5 4 7
v 0 4 7
v 5 4 7
v 0 4 8
v 5 4 8
v 0 4 8
v 5 4 8
v 0 4.5 8
v 5 4.5 8
v 0 4.5 8
v 5 4.5 8
v 0 4.5 9
v 5 4.5 9
v 0 4.5 9
v 5 4.5 9
v 0 5 9
v 5 5 9
v 0 5 9
v 5 5 9
v 0 5 10
v 5 5 10
v 0 5 10
v 5 5 10
v 0 5.5 10
v 5 5.5 10
v 0 5.5 10
v 5 5.5 10
v 0 5.5 11
v 5 5.5 11
v 0 5.5 11
v 5 5.5 11
v 0 6 11
v 5 6 11
v 0 6 11
v 5 6 11
v 0 6 12
v 5 6 12
v 0 6 12
v 5 6 12
v 0 6.5 12
v 5 6.5 12
v 0 6.5 12
v 5 6.5 12
v 0 6.5 13
v 5 6.5 13
v 0 6.5 13
v 5 6.5 13
v 0 7 13
v 5 7 13
v 0 7 13
v 5 7 13
v 0 7 14
v 5 7 14
v 0 7 14
v 5 7 14
v 0 7.5 14
v 5 7.5 14
v 0 7.5 14
v 5 7.5 14
v 0 7.5 15
v 5 7.5 15
v 0 7.5 15
v 5 7.5 15
v 0 8 15
v 5 8 15
v 0 8 15
v 5 8 15
v 0 8 16
v 5 8 16
v 0 8 16
v 5 8 16
v 0 8.5 16
v 5 8.5 16
v 0 8.5 16
v 5 8.5 16
v 0 8.5 17
v 5 8.5 17
v 0 8.5 17
v 5 8.5 17
v 0 9 17
v 5 9 17
v 0 9 17
v 5 9 17
v 0 9 18
v 5 9 18
v 0 9 18
v 5 9 18
v 0 9.5 18
v 5 9.5 18
v 0 9.5 18
v 5 9.5 18
v 0 9.5 19
v 5 9.5 19
v 0 9.5 19
v 5 9.5 19
v 0 10 19
v 5 10 19
v 0 10 19
v 5 10 19
v 0 10 20
v 5 10 20
v 5 0 0
v 5 0 1
v 5 0.5 0
v 5 0.5 1
v 5 0 2
v 5 1 2
v 5 1 1
v 5 0 3
v 5 1.5 3
v 5 1.5 2
v 5 0 4
v 5 2 4
v 5 2 3
v 5 0 5
v 5 2.5 5
v 5 2.5 4
v 5 0 6
v 5 3 6
v 5 3 5
v 5 0 7
v 5 3.5 7
v 5 3.5 6
v 5 0 8
v 5 4 8
v 5 4 7
v 5 0 9
v 5 4.5 9
v 5 4.5 8
v 5 0 10
v 5 5 10
v 5 5 9
v 5 0 11
v 5 5.5 11
v 5 5.5 10
v 5 0 12
v 5 6 12
v 5 6 11
v 5 0 13
v 5 6.5 13
v 5 6.5 12
v 5 0 14
v 5 7 14
v 5 7 13
v 5 0 15
v 5 7.5 15
v 5 7.5 14
v 5 0 16
v 5 8 16
v 5 8 15
v 5 0 17
v 5 8.5 17
v 5 8.5 16
v 5 0 18
v 5 9 18
v 5 9 17
v 5 0 19
v 5 9.5 19
v 5 9.5 18
v 5 0 20
v 5 10 20
v 5 10 19
v 0 0.5 0
v 0 0 1
v 0 0 0
v 0 0.5 1
v 0 0 2
v 0 1 2
v 0 1 1
v 0 0 3
v 0 1.5 3
v 0 1.5 2
v 0 0 4
v 0 2 4
v 0 2 3
v 0 0 5
v 0 2.5 5
v 0 2.5 4
v 0 0 6
v 0 3 6
v 0 3 5
v 0 0 7
v 0 3.5 7
v 0 3.5 6
v 0 0 8
v 0 4 8
v 0 4 7
v 0 0 9
v 0 4.5 9
v 0 4.5 8
v 0 0 10
v 0 5 10
v 0 5 9
v 0 0 11
v 0 5.5 11
v 0 5.5 10
v 0 0 12
v 0 6 12
v 0 6 11
v 0 0 13
v 0 6.5 13
v 0 6.5 12
v 0 0 14
v 0 7 14
v 0 7 13
v 0 0 15
v 0 7.5 15
v 0 7.5 14
v 0 0 16
v 0 8 16
v 0 8 15
v 0 0 17
v 0 8.5 17
v 0 8.5 16
v 0 0 18
v 0 9 18
v 0 9 17
v 0 0 19
v 0 9.5 19
v 0 9.5 18
v 0 0 20
v 0 10 20
v 0 10 19
v 5 0 20
v 0 0 20
v 5 10 20
v 0 10 20

vn 0 0 -1
vn 0 0 -1
vn 0 0 -1
vn 0 0 -1
vn 0 1 0
vn 0 1 0
vn 0 1 0
vn 0 1 0
vn 0 0 -1
vn 0 0 -1
vn 0 0 -1
vn 0 0 -1
vn 0 1 0
vn 0 1 0
vn 0 1 0
vn 0 1 0
vn 0 0 -1
vn 0 0 -1
vn 0 0 -1
vn 0 0 -1
vn 0 1 0
vn 0 1 0
vn 0 1 0
vn 0 1 0
vn 0 0 -1
vn 0 0 -1
vn 0 0 -1
vn 0 0 -1
vn 0 1 0
vn 0 1 0
vn 0 1 0
vn 0 1 0
vn 0 0 -1
vn 0 0 -1
vn 0 0 -1
vn 0 0 -1
vn 0 1 0
vn 0 1 0
vn 0 1 0
vn 0 1 0
vn 0 0 -1
vn 0 0 -1
vn 0 0 -1
vn 0 0 -1
vn 0 1 0
vn 0 1 0
vn 0 1 0
vn 0 1 0
vn 0 0 -1
vn 0 0 -1
vn 0 0 -1
vn 0 0 -1
vn 0 1 0
vn 0 1 0
vn 0 1 0
vn 0 1 0
vn 0 0 -1
vn 0 0 -1
vn 0 0 -1
vn 0 0 -1
vn 0 1 0
vn 0 1 0
vn 0 1 0
vn 0 1 0
vn 0 0 -1
vn 0 0 -1
vn 0 0 -1
vn 0 0 -1
vn 0 1 0
vn 0 1 0
vn 0 1 0
vn 0 1 0
vn 0 0 -1
vn 0 0 -1
vn 0 0 -1
vn 0 0 -1
vn 0 1 0
vn 0 1 0
vn 0 1 0
vn 0 1 0
vn 0 0 -1
vn 0 0 -1
vn 0 0 -1
vn 0 0 -1
vn 0 1 0
vn 0 1 0
vn 0 1 0
vn 0 1 0
vn 0 0 -1
vn 0 0 -1
vn 0 0 -1
vn 0 0 -1
vn 0 1 0
vn 0 1 0
vn 0 1 0
vn 0 1 0
vn 0 0 -1
vn 0 0 -1
vn 0 0 -1
vn 0 0 -1
vn 0 1 0
vn 0 1 0
vn 0 1 0
vn 0 1 0
vn 0 0 -1
vn 0 0 -1
vn 0 0 -1
vn 0 0 -1
vn 0 1 0
vn 0 1 0
vn 0 1 0
vn 0 1 0
vn 0 0 -1
vn 0 0 -1
vn 0 0 -1
vn 0 0 -1
vn 0 1 0
vn 0 1 0
vn 0 1 0
vn 0 1 0
vn 0 0 -1
vn 0 0 -1
vn 0 0 -1
vn 0 0 -1
vn 0 1 0
vn 0 1 0
vn 0 1 0
vn 0 1 0
vn 0 0 -1
vn 0 0 -1
vn 0 0 -1
vn 0 0 -1
vn 0 1 0
vn 0 1 0
vn 0 1 0
vn 0 1 0
vn 0 0 -1
vn 0 0 -1
vn 0 0 -1
vn 0 0 -1
vn 0 1 0
vn 0 1 0
vn 0 1 0
vn 0 1 0
vn 0 0 -1
vn 0 0 -1
vn 0 0 -1
vn 0 0 -1
vn 0 1 0
vn 0 1 0
vn 0 1 0
vn 0 1 0
vn 0 0 -1
vn 0 0 -1
vn 0 0 -1
vn 0 0 -1
vn 0 1 0
vn 0 1 0
vn 0 1 0
vn 0 1 0
vn 1 0 0
vn 1 0 0
vn 1 0 0
vn 1 0 0
vn 1 0 0
vn 1 0 0
vn 1 0 0
vn 1 0 0
vn 1 0 0
vn 1 0 0
vn 1 0 0
vn 1 0 0
vn 1 0 0
vn 1 0 0
vn 1 0 0
vn 1 0 0
vn 1 0 0
vn 1 0 0
vn 1 0 0
vn 1 0 0
vn 1 0 0
vn 1 0 0
vn 1 0 0
vn 1 0 0
vn 1 0 0
vn 1 0 0
vn 1 0 0
vn 1 0 0
vn 1 0 0
vn 1 0 0
vn 1 0 0
vn 1 0 0
vn 1 0 0
vn 1 0 0
vn 1 0 0
vn 1 0 0
vn 1 0 0
vn 1 0 0
vn 1 0 0
vn 1 0 0
vn 1 0 0
vn 1 0 0
vn 1 0 0
vn 1 0 0
vn 1 0 0
vn 1 0 0
vn 1 0 0
vn 1 0 0
vn 1 0 0
vn 1 0 0
vn 1 0 0
vn 1 0 0
vn 1 0 0
vn 1 0 0
vn 1 0 0
vn 1 0 0
vn 1 0 0
vn 1 0 0
vn 1 0 0
vn 1 0 0
vn 1 0 0
vn -1 0 0
vn -1 0 0
vn -1 0 0
vn -1 0 0
vn -1 0 0
vn -1 0 0
vn -1 0 0
vn -1 0 0
vn -1 0 0
vn -1 0 0
vn -1 0 0
vn -1 0 0
vn -1 0 0
vn -1 0 0
vn -1 0 0
vn -1 0 0
vn -1 0 0
vn -1 0 0
vn -1 0 0
vn -1 0 0
vn -1 0 0
vn -1 0 0
vn -1 0 0
vn -1 0 0
vn -1 0 0
vn -1 0 0
vn -1 0 0
vn -1 0 0
vn -1 0 0
vn -1 0 0
vn -1 0 0
vn -1 0 0
vn -1 0 0
vn -1 0 0
vn -1 0 0
vn -1 0 0
vn -1 0 0
vn -1 0 0
vn -1 0 0
vn -1 0 0
vn -1 0 0
vn -1 0 0
vn -1 0 0
vn -1 0 0
vn -1 0 0
vn -1 0 0
vn -1 0 0
vn -1 0 0
vn -1 0 0
vn -1 0 0
vn -1 0 0
vn -1 0 0
vn -1 0 0
vn -1 0 0
vn -1 0 0
vn -1 0 0
vn -1 0 0
vn -1 0 0
vn -1 0 0
vn -1 0 0
vn -1 0 0
vn 0 0 1
vn 0 0 1
vn 0 0 1
vn 0 0 1

vt 0 0
vt -5 0
vt 0 0.5
vt -5 0.5
vt 0 0
vt -5 0
vt 0 1
vt -5 1
vt 0 0.5
vt -5 0.5
vt 0 1
vt -5 1
vt 0 1
vt -5 1
vt 0 2
vt -5 2
vt 0 1
vt -5 1
vt 0 1.5
vt -5 1.5
vt 0 2
vt -5 2
vt 0 3
vt -5 3
vt 0 1.5
vt -5 1.5
vt 0 2
vt -5 2
vt 0 3
vt -5 3
vt 0 4
vt -5 4
vt 0 2
vt -5 2
vt 0 2.5
vt -5 2.5
vt 0 4
vt -5 4
vt 0 5
vt -5 5
vt 0 2.5
vt -5 2.5
vt 0 3
vt -5 3
vt 0 5
vt -5 5
vt 0 6
vt -5 6
vt 0 3
vt -5 3
vt 0 3.5
vt -5 3.5
vt 0 6
vt -5 6
vt 0 7
vt -5 7
vt 0 3.5
vt -5 3.5
vt 0 4
vt -5 4
vt 0 7
vt -5 7
vt 0 8
vt -5 8
vt 0 4
vt -5 4
vt 0 4.5
vt -5 4.5
vt 0 8
vt -5 8
vt 0 9
vt -5 9
vt 0 4.5
vt -5 4.5
vt 0 5
vt -5 5
vt 0 9
vt -5 9
vt 0 10
vt -5 10
vt 0 5
vt -5 5
vt 0 5.5
vt -5 5.5
vt 0 10
vt -5 10
vt 0 11
vt -5 11
vt 0 5.5
vt -5 5.5
vt 0 6
vt -5 6
vt 0 11
vt -5 11
vt 0 12
vt -5 12
vt 0 6
vt -5 6
vt 0 6.5
vt -5 6.5
vt 0 12
vt -5 12
vt 0 13
vt -5 13
vt 0 6.5
vt -5 6.5
vt 0 7
vt -5 7
vt 0 13
vt -5 13
vt 0 14
vt -5 14
vt 0 7
vt -5 7
vt 0 7.5
vt -5 7.5
vt 0 14
vt -5 14
vt 0 15
vt -5 15
vt 0 7.5
vt -5 7.5
vt 0 8
vt -5 8
vt 0 15
vt -5 15
vt 0 16
vt -5 16
vt 0 8
vt -5 8
vt 0 8.5
vt -5 8.5
vt 0 16
vt -5 16
vt 0 17
vt -5 17
vt 0 8.5
vt -5 8.5
vt 0 9
vt -5 9
vt 0 17
vt -5 17
vt 0 18
vt -5 18
vt 0 9
vt -5 9
vt 0 9.5
vt -5 9.5
vt 0 18
vt -5 18
vt 0 19
vt -5 19
vt 0 9.5
vt -5 9.5
vt 0 10
vt -5 10
vt 0 19
vt -5 19
vt 0 20
vt -5 20
vt 0 0
vt 1 0
vt 0 0.5
vt 1 0.5
vt 2 0
vt 2 1
vt 1 1
vt 3 0
vt 3 1.5
vt 2 1.5
vt 4 0
vt 4 2
vt 3 2
vt 5 0
vt 5 2.5
vt 4 2.5
vt 6 0
vt 6 3
vt 5 3
vt 7 0
vt 7 3.5
vt 6 3.5
vt 8 0
vt 8 4
vt 7 4
vt 9 0
vt 9 4.5
vt 8 4.5
vt 10 0
vt 10 5
vt 9 5
vt 11 0
vt 11 5.5
vt 10 5.5
vt 12 0
vt 12 6
vt 11 6
vt 13 0
vt 13 6.5
vt 12 6.5
vt 14 0
vt 14 7
vt 13 7
vt 15 0
vt 15 7.5
vt 14 7.5
vt 16 0
vt 16 8
vt 15 8
vt 17 0
vt 17 8.5
vt 16 8.5
vt 18 0
vt 18 9
vt 17 9
vt 19 0
vt 19 9.5
vt 18 9.5
vt 20 0
vt 20 10
vt 19 10
vt 0 0.5
vt 1 0
vt 0 0
vt 1 0.5
vt 2 0
vt 2 1
vt 1 1
vt 3 0
vt 3 1.5
vt 2 1.5
vt 4 0
vt 4 2
vt 3 2
vt 5 0
vt 5 2.5
vt 4 2.5
vt 6 0
vt 6 3
vt 5 3
vt 7 0
vt 7 3.5
vt 6 3.5
vt 8 0
vt 8 4
vt 7 4
vt 9 0
vt 9 4.5
vt 8 4.5
vt 10 0
vt 10 5
vt 9 5
vt 11 0
vt 11 5.5
vt 10 5.5
vt 12 0
vt 12 6
vt 11 6
vt 13 0
vt 13 6.5
vt 12 6.5
vt 14 0
vt 14 7
vt 13 7
vt 15 0
vt 15 7.5
vt 14 7.5
vt 16 0
vt 16 8
vt 15 8
vt 17 0
vt 17 8.5
vt 16 8.5
vt 18 0
vt 18 9
vt 17 9
vt 19 0
vt 19 9.5
vt 18 9.5
vt 20 0
vt 20 10
vt 19 10
vt 5 0
vt 0 0
vt 5 10
vt 0 10

g TexturesCom_ConcreteRough0076_1_seamless_S
usemtl TexturesCom_ConcreteRough0076_1_seamless_S
usemap TexturesCom_ConcreteRough0076_1_seamless_S
f 2/2/2 1/1/1 3/3/3
f 4/4/4 2/2/2 3/3/3
f 6/6/6 5/5/5 7/7/7
f 8/8/8 6/6/6 7/7/7
f 10/10/10 9/9/9 11/11/11
f 12/12/12 10/10/10 11/11/11
f 14/14/14 13/13/13 15/15/15
f 16/16/16 14/14/14 15/15/15
f 18/18/18 17/17/17 19/19/19
f 20/20/20 18/18/18 19/19/19
f 22/22/22 21/21/21 23/23/23
f 24/24/24 22/22/22 23/23/23
f 26/26/26 25/25/25 27/27/27
f 28/28/28 26/26/26 27/27/27
f 30/30/30 29/29/29 31/31/31
f 32/32/32 30/30/30 31/31/31
f 34/34/34 33/33/33 35/35/35
f 36/36/36 34/34/34 35/35/35
f 38/38/38 37/37/37 39/39/39
f 40/40/40 38/38/38 39/39/39
f 42/42/42 41/41/41 43/43/43
f 44/44/44 42/42/42 43/43/43
f 46/46/46 45/45/45 47/47/47
f 48/48/48 46/46/46 47/47/47
f 50/50/50 49/49/49 51/51/51
f 52/52/52 50/50/50 51/51/51
f 54/54/54 53/53/53 55/55/55
f 56/56/56 54/54/54 55/55/55
f 58/58/58 57/57/57 59/59/59
f 60/60/60 58/58/58 59/59/59
f 62/62/62 61/61/61 63/63/63
f 64/64/64 62/62/62 63/63/63
f 66/66/66 65/65/65 67/67/67
f 68/68/68 66/66/66 67/67/67
f 70/70/70 69/69/69 71/71/71
f 72/72/72 70/70/70 71/71/71
f 74/74/74 73/73/73 75/75/75
f 76/76/76 74/74/74 75/75/75
f 78/78/78 77/77/77 79/79/79
f 80/80/80 78/78/78 79/79/79
f 82/82/82 81/81/81 83/83/83
f 84/84/84 82/82/82 83/83/83
f 86/86/86 85/85/85 87/87/87
f 88/88/88 86/86/86 87/87/87
f 90/90/90 89/89/89 91/91/91
f 92/92/92 90/90/90 91/91/91
f 94/94/94 93/93/93 95/95/95
f 96/96/96 94/94/94 95/95/95
f 98/98/98 97/97/97 99/99/99
f 100/100/100 98/98/98 99/99/99
f 102/102/102 101/101/101 103/103/103
f 104/104/104 102/102/102 103/103/103
f 106/106/106 105/105/105 107/107/107
f 108/108/108 106/106/106 107/107/107
f 110/110/110 109/109/109 111/111/111
f 112/112/112 110/110/110 111/111/111
f 114/114/114 113/113/113 115/115/115
f 116/116/116 114/114/114 115/115/115
f 118/118/118 117/117/117 119/119/119
f 120/120/120 118/118/118 119/119/119
f 122/122/122 121/121/121 123/123/123
f 124/124/124 122/122/122 123/123/123
f 126/126/126 125/125/125 127/127/127
f 128/128/128 126/126/126 127/127/127
f 130/130/130 129/129/129 131/131/131
f 132/132/132 130/130/130 131/131/131
f 134/134/134 133/133/133 135/135/135
f 136/136/136 134/134/134 135/135/135
f 138/138/138 137/137/137 139/139/139
f 140/140/140 138/138/138 139/139/139
f 142/142/142 141/141/141 143/143/143
f 144/144/144 142/142/142 143/143/143
f 146/146/146 145/145/145 147/147/147
f 148/148/148 146/146/146 147/147/147
f 150/150/150 149/149/149 151/151/151
f 152/152/152 150/150/150 151/151/151
f 154/154/154 153/153/153 155/155/155
f 156/156/156 154/154/154 155/155/155
f 158/158/158 157/157/157 159/159/159
f 160/160/160 158/158/158 159/159/159
f 162/162/162 161/161/161 163/163/163
f 164/164/164 162/162/162 163/163/163
f 165/165/165 162/162/162 164/164/164
f 166/166/166 165/165/165 164/164/164
f 167/167/167 166/166/166 164/164/164
f 168/168/168 165/165/165 166/166/166
f 169/169/169 168/168/168 166/166/166
f 170/170/170 169/169/169 166/166/166
f 171/171/171 168/168/168 169/169/169
f 172/172/172 171/171/171 169/169/169
f 173/173/173 172/172/172 169/169/169
f 174/174/174 171/171/171 172/172/172
f 175/175/175 174/174/174 172/172/172
f 176/176/176 175/175/175 172/172/172
f 177/177/177 174/174/174 175/175/175
f 178/178/178 177/177/177 175/175/175
f 179/179/179 178/178/178 175/175/175
f 180/180/180 177/177/177 178/178/178
f 181/181/181 180/180/180 178/178/178
f 182/182/182 181/181/181 178/178/178
f 183/183/183 180/180/180 181/181/181
f 184/184/184 183/183/183 181/181/181
f 185/185/185 184/184/184 181/181/181
f 186/186/186 183/183/183 184/184/184
f 187/187/187 186/186/186 184/184/184
f 188/188/188 187/187/187 184/184/184
f 189/189/189 186/186/186 187/187/187
f 190/190/190 189/189/189 187/187/187
f 191/191/191 190/190/190 187/187/187
f 192/192/192 189/189/189 190/190/190
f 193/193/193 192/192/192 190/190/190
f 194/194/194 193/193/193 190/190/190
f 195/195/195 192/192/192 193/193/193
f 196/196/196 195/195/195 193/193/193
f 197/197/197 196/196/196 193/193/193
f 198/198/198 195/195/195 196/196/196
f 199/199/199 198/198/198 196/196/196
f 200/200/200 199/199/199 196/196/196
f 201/201/201 198/198/198 199/199/199
f 202/202/202 201/201/201 199/199/199
f 203/203/203 202/202/202 199/199/199
f 204/204/204 201/201/201 202/202/202
f 205/205/205 204/204/204 202/202/202
f 206/206/206 205/205/205 202/202/202
f 207/207/207 204/204/204 205/205/205
f 208/208/208 207/207/207 205/205/205
f 209/209/209 208/208/208 205/205/205
f 210/210/210 207/207/207 208/208/208
f 211/211/211 210/210/210 208/208/208
f 212/212/212 211/211/211 208/208/208
f 213/213/213 210/210/210 211/211/211
f 214/214/214 213/213/213 211/211/211
f 215/215/215 214/214/214 211/211/211
f 216/216/216 213/213/213 214/214/214
f 217/217/217 216/216/216 214/214/214
f 218/218/218 217/217/217 214/214/214
f 219/219/219 216/216/216 217/217/217
f 220/220/220 219/219/219 217/217/217
f 221/221/221 220/220/220 217/217/217
f 223/223/223 222/222/222 224/224/224
f 225/225/225 222/222/222 223/223/223
f 226/226/226 225/225/225 223/223/223
f 227/227/227 225/225/225 226/226/226
f 228/228/228 225/225/225 227/227/227
f 229/229/229 227/227/227 226/226/226
f 230/230/230 227/227/227 229/229/229
f 231/231/231 227/227/227 230/230/230
f 232/232/232 230/230/230 229/229/229
f 233/233/233 230/230/230 232/232/232
f 234/234/234 230/230/230 233/233/233
f 235/235/235 233/233/233 232/232/232
f 236/236/236 233/233/233 235/235/235
f 237/237/237 233/233/233 236/236/236
f 238/238/238 236/236/236 235/235/235
f 239/239/239 236/236/236 238/238/238
f 240/240/240 236/236/236 239/239/239
f 241/241/241 239/239/239 238/238/238
f 242/242/242 239/239/239 241/241/241
f 243/243/243 239/239/239 242/242/242
f 244/244/244 242/242/242 241/241/241
f 245/245/245 242/242/242 244/244/244
f 246/246/246 242/242/242 245/245/245
f 247/247/247 245/245/245 244/244/244
f 248/248/248 245/245/245 247/247/247
f 249/249/249 245/245/245 248/248/248
f 250/250/250 248/248/248 247/247/247
f 251/251/251 248/248/248 250/250/250
f 252/252/252 248/248/248 251/251/251
f 253/253/253 251/251/251 250/250/250
f 254/254/254 251/251/251 253/253/253
f 255/255/255 251/251/251 254/254/254
f 256/256/256 254/254/254 253/253/253
f 257/257/257 254/254/254 256/256/256
f 258/258/258 254/254/254 257/257/257
f 259/259/259 257/257/257 256/256/256
f 260/260/260 257/257/257 259/259/259
f 261/261/261 257/257/257 260/260/260
f 262/262/262 260/260/260 259/259/259
f 263/263/263 260/260/260 262/262/262
f 264/264/264 260/260/260 263/263/263
f 265/265/265 263/263/263 262/262/262
f 266/266/266 263/263/263 265/265/265
f 267/267/267 263/263/263 266/266/266
f 268/268/268 266/266/266 265/265/265
f 269/269/269 266/266/266 268/268/268
f 270/270/270 266/266/266 269/269/269
f 271/271/271 269/269/269 268/268/268
f 272/272/272 269/269/269 271/271/271
f 273/273/273 269/269/269 272/272/272
f 274/274/274 272/272/272 271/271/271
f 275/275/275 272/272/272 274/274/274
f 276/276/276 272/272/272 275/275/275
f 277/277/277 275/275/275 274/274/274
f 278/278/278 275/275/275 277/277/277
f 279/279/279 275/275/275 278/278/278
f 280/280/280 278/278/278 277/277/277
f 281/281/281 278/278/278 280/280/280
f 282/282/282 278/278/278 281/281/281
f 284/284/284 283/283/283 285/285/285
f 286/286/286 284/284/284 285/285/285
