mtllib ./pb-76798.mtl
g Plane 3
v 0 0 0
v 0 0 1.25
v -1.25 0 0
v -1.25 0 1.25
v 0 0 2.5
v -1.25 0 2.5
v 0 0 3.75
v -1.25 0 3.75
v 0 0 5
v -1.25 0 5
v -3.75 0 0
v -3.75 0 1.25
v -5 0 0
v -5 0 1.25
v -3.75 0 2.5
v -5 0 2.5
v -3.75 0 3.75
v -5 0 3.75
v -3.75 0 5
v -5 0 5
v -1.25 0 5
v -2.5 0 5
v -1.375 0.1384192 5
v -2.5 0.1384192 5
v -3.75 0 5
v -3.625 0.1384192 5
v -3.75 0 0
v -2.5 0 0
v -3.625 0.1384192 0
v -2.5 0.1384192 0
v -1.25 0 0
v -1.375 0.1384192 0
v -1.375 0.1384192 0
v -1.375 0.1384192 1.25
v -2.5 0.1384192 0
v -2.5 0.1384192 1.25
v -1.375 0.1384192 2.5
v -2.5 0.1384192 2.5
v -1.375 0.1384192 3.75
v -2.5 0.1384192 3.75
v -1.375 0.1384192 5
v -2.5 0.1384192 5
v -3.625 0.1384192 0
v -3.625 0.1384192 1.25
v -3.625 0.1384192 2.5
v -3.625 0.1384192 3.75
v -3.625 0.1384192 5
v -1.25 0 3.75
v -1.25 0 5
v -1.375 0.1384192 3.75
v -1.375 0.1384192 5
v -3.75 0 3.75
v -3.75 0 2.5
v -3.625 0.1384192 3.75
v -3.625 0.1384192 2.5
v -3.75 0 5
v -3.625 0.1384192 5
v -3.75 0 1.25
v -3.625 0.1384192 1.25
v -1.25 0 2.5
v -1.375 0.1384192 2.5
v -3.75 0 0
v -3.625 0.1384192 0
v -1.25 0 1.25
v -1.375 0.1384192 1.25
v -1.25 0 0
v -1.375 0.1384192 0

vn 0 1 0
vn 0 1 0
vn 0 1 0
vn 0 1 0
vn 0 1 0
vn 0 1 0
vn 0 1 0
vn 0 1 0
vn 0 1 0
vn 0 1 0
vn 0 1 0
vn 0 1 0
vn 0 1 0
vn 0 1 0
vn 0 1 0
vn 0 1 0
vn 0 1 0
vn 0 1 0
vn 0 1 0
vn 0 1 0
vn 0 0 1
vn 0 0 0.9999999
vn 0 0 0.9999999
vn 0 0 1
vn 0 0 0.9999999
vn 0 0 1
vn 0 0 -1
vn 0 0 -0.9999999
vn 0 0 -0.9999999
vn 0 0 -1
vn 0 0 -0.9999999
vn 0 0 -1
vn 0 1 0
vn 0 1 0
vn 0 1 0
vn 0 1 0
vn 0 1 0
vn 0 1 0
vn 0 1 0
vn 0 1 0
vn 0 1 0
vn 0 1 0
vn 0 1 0
vn 0 1 0
vn 0 1 0
vn 0 1 0
vn 0 1 0
vn 0.742166 0.6702161 0
vn 0.742166 0.6702161 0
vn 0.742166 0.6702161 0
vn 0.742166 0.6702161 0
vn -0.742166 0.6702161 0
vn -0.742166 0.6702161 0
vn -0.742166 0.6702161 0
vn -0.742166 0.6702161 0
vn -0.742166 0.6702161 0
vn -0.742166 0.6702161 0
vn -0.742166 0.6702161 0
vn -0.742166 0.6702161 0
vn 0.742166 0.6702161 0
vn 0.742166 0.6702161 0
vn -0.742166 0.6702161 0
vn -0.742166 0.6702161 0
vn 0.742166 0.6702161 0
vn 0.742166 0.6702161 0
vn 0.742166 0.6702161 0
vn 0.742166 0.6702161 0

vt 0 0
vt 0 1.25
vt 1.25 0
vt 1.25 1.25
vt 0 2.5
vt 1.25 2.5
vt 0 3.75
vt 1.25 3.75
vt 0 5
vt 1.25 5
vt 3.75 0
vt 3.75 1.25
vt 5 0
vt 5 1.25
vt 3.75 2.5
vt 5 2.5
vt 3.75 3.75
vt 5 3.75
vt 3.75 5
vt 5 5
vt -1.25 0
vt -2.5 0
vt -1.375 0.1384192
vt -2.5 0.1384192
vt -3.75 0
vt -3.625 0.1384192
vt 3.75 0
vt 2.5 0
vt 3.625 0.1384192
vt 2.5 0.1384192
vt 1.25 0
vt 1.375 0.1384192
vt 1.375 0
vt 1.375 1.25
vt 2.5 0
vt 2.5 1.25
vt 1.375 2.5
vt 2.5 2.5
vt 1.375 3.75
vt 2.5 3.75
vt 1.375 5
vt 2.5 5
vt 3.625 0
vt 3.625 1.25
vt 3.625 2.5
vt 3.625 3.75
vt 3.625 5
vt -3.75 0.8377702
vt -5 0.8377702
vt -3.75 1.024277
vt -5 1.024277
vt 3.75 -2.51331
vt 2.5 -2.51331
vt 3.75 -2.326803
vt 2.5 -2.326803
vt 5 -2.51331
vt 5 -2.326803
vt 1.25 -2.51331
vt 1.25 -2.326803
vt -2.5 0.8377702
vt -2.5 1.024277
vt 0 -2.51331
vt 0 -2.326803
vt -1.25 0.8377702
vt -1.25 1.024277
vt 0 0.8377702
vt 0 1.024277

g TexturesCom_ConcreteBare0398_7_seamless_S
usemtl TexturesCom_ConcreteBare0398_7_seamless_S
usemap TexturesCom_ConcreteBare0398_7_seamless_S
f 2/2/2 1/1/1 3/3/3
f 4/4/4 2/2/2 3/3/3
f 5/5/5 2/2/2 4/4/4
f 6/6/6 5/5/5 4/4/4
f 7/7/7 5/5/5 6/6/6
f 8/8/8 7/7/7 6/6/6
f 9/9/9 7/7/7 8/8/8
f 10/10/10 9/9/9 8/8/8
f 12/12/12 11/11/11 13/13/13
f 14/14/14 12/12/12 13/13/13
f 15/15/15 12/12/12 14/14/14
f 16/16/16 15/15/15 14/14/14
f 17/17/17 15/15/15 16/16/16
f 18/18/18 17/17/17 16/16/16
f 19/19/19 17/17/17 18/18/18
f 20/20/20 19/19/19 18/18/18
f 22/22/22 21/21/21 23/23/23
f 24/24/24 22/22/22 23/23/23
f 25/25/25 22/22/22 24/24/24
f 26/26/26 25/25/25 24/24/24
f 28/28/28 27/27/27 29/29/29
f 30/30/30 28/28/28 29/29/29
f 31/31/31 28/28/28 30/30/30
f 32/32/32 31/31/31 30/30/30

g TexturesCom_ConcreteRough0076_1_seamless_S
usemtl TexturesCom_ConcreteRough0076_1_seamless_S
usemap TexturesCom_ConcreteRough0076_1_seamless_S
f 34/34/34 33/33/33 35/35/35
f 36/36/36 34/34/34 35/35/35
f 37/37/37 34/34/34 36/36/36
f 38/38/38 37/37/37 36/36/36
f 39/39/39 37/37/37 38/38/38
f 40/40/40 39/39/39 38/38/38
f 41/41/41 39/39/39 40/40/40
f 42/42/42 41/41/41 40/40/40
f 36/36/36 35/35/35 43/43/43
f 44/44/44 36/36/36 43/43/43
f 38/38/38 36/36/36 44/44/44
f 45/45/45 38/38/38 44/44/44
f 40/40/40 38/38/38 45/45/45
f 46/46/46 40/40/40 45/45/45
f 42/42/42 40/40/40 46/46/46
f 47/47/47 42/42/42 46/46/46
f 49/49/49 48/48/48 50/50/50
f 51/51/51 49/49/49 50/50/50
f 53/53/53 52/52/52 54/54/54
f 55/55/55 53/53/53 54/54/54
f 52/52/52 56/56/56 57/57/57
f 54/54/54 52/52/52 57/57/57
f 58/58/58 53/53/53 55/55/55
f 59/59/59 58/58/58 55/55/55
f 48/48/48 60/60/60 61/61/61
f 50/50/50 48/48/48 61/61/61
f 62/62/62 58/58/58 59/59/59
f 63/63/63 62/62/62 59/59/59
f 60/60/60 64/64/64 65/65/65
f 61/61/61 60/60/60 65/65/65
f 64/64/64 66/66/66 67/67/67
f 65/65/65 64/64/64 67/67/67
