mtllib ./pb-82212.mtl
g Plane 7
v 0 0 0
v 0 0 1.25
v -1.25 0 0
v -1.25 0 1.25
v 0 0 3.75
v 0 0 5
v -1.25 0 3.75
v -1.25 0 5
v -2.5 0 0
v -2.5 0 1.25
v -3.75 0 0
v -3.75 0 1.25
v -5 0 0
v -5 0 1.25
v -3.75 0 2.5
v -5 0 2.5
v -3.75 0 3.75
v -5 0 3.75
v -3.75 0 5
v -5 0 5
v 0 0 1.25
v 0 0 2.5
v 0 0.1384192 1.375
v 0 0.1384192 2.5
v -1.25 0 5
v -2.5 0 5
v -1.375 0.1384192 5
v -2.5 0.1384192 5
v 0 0 3.75
v 0 0.1384192 3.625
v -3.75 0 5
v -3.625 0.1384192 5
v 0 0.1384192 1.375
v 0 0.1384192 2.5
v -1.25 0.1384192 1.375
v -1.25 0.1384192 2.5
v 0 0.1384192 3.625
v -1.375 0.1384192 3.625
v -2.5 0.1384192 1.45
v -2.5 0.1384192 2.5
v -2.5 0.1384192 3.75
v -1.375 0.1384192 5
v -2.5 0.1384192 5
v -3.55 0.1384192 1.45
v -3.55 0.1384192 2.5
v -3.625 0.1384192 3.75
v -3.625 0.1384192 5
v -3.75 0 1.25
v -2.5 0 1.25
v -3.55 0.1384192 1.45
v -2.5 0.1384192 1.45
v -3.75 0 3.75
v -3.75 0 2.5
v -3.625 0.1384192 3.75
v -3.55 0.1384192 2.5
v -1.25 0 1.25
v -2.5 0.1384192 1.45
v -1.25 0.1384192 1.375
v 0 0 3.75
v -1.25 0 3.75
v 0 0.1384192 3.625
v -1.375 0.1384192 3.625
v -1.25 0 1.25
v 0 0 1.25
v -1.25 0.1384192 1.375
v 0 0.1384192 1.375
v -3.75 0 2.5
v -3.75 0 1.25
v -3.55 0.1384192 2.5
v -3.55 0.1384192 1.45
v -3.75 0 5
v -3.625 0.1384192 5
v -3.625 0.1384192 3.75
v -1.25 0 3.75
v -1.25 0 5
v -1.375 0.1384192 3.625
v -1.375 0.1384192 5

vn 0 1 0
vn 0 1 0
vn 0 1 0
vn 0 1 0
vn 0 1 0
vn 0 1 0
vn 0 1 0
vn 0 1 0
vn 0 1 0
vn 0 1 0
vn 0 1 0
vn 0 1 0
vn 0 1 0
vn 0 1 0
vn 0 1 0
vn 0 1 0
vn 0 1 0
vn 0 1 0
vn 0 1 0
vn 0 1 0
vn 1 0 0
vn 0.9999999 0 0
vn 0.9999999 0 0
vn 1 0 0
vn 0 0 1
vn 0 0 0.9999999
vn 0 0 0.9999999
vn 0 0 1
vn 0.9999999 0 0
vn 1 0 0
vn 0 0 0.9999999
vn 0 0 1
vn 0 1 0
vn 0 1 0
vn 0 1 0
vn 0 1 0
vn 0 0.9999999 0
vn 0 1 0
vn 0 1 0
vn 0 1 0
vn 0 1 0
vn 0 0.9999999 0
vn 0 1 0
vn 0 1 0
vn 0 1 0
vn 0 1 0
vn 0 1 0
vn 0 0.8222739 -0.5690921
vn 0 0.8222738 -0.569092
vn 0 0.8222738 -0.569092
vn 0 0.8222738 -0.5690921
vn -0.742166 0.6702161 0
vn -0.6483254 0.761115 -0.01944977
vn -0.6483254 0.761115 -0.01944977
vn -0.5687606 0.8217949 -0.03412566
vn -0.01944977 0.761115 -0.6483254
vn -0.01944977 0.761115 -0.6483254
vn -0.0444859 0.6695526 -0.7414312
vn 0 0.6702161 0.742166
vn 0 0.6702161 0.742166
vn 0 0.6702161 0.742166
vn 0 0.6702161 0.7421659
vn 0 0.6702161 -0.742166
vn 0 0.6702161 -0.742166
vn 0 0.6702161 -0.742166
vn 0 0.6702161 -0.742166
vn -0.5690921 0.8222739 0
vn -0.569092 0.8222738 0
vn -0.569092 0.8222738 0
vn -0.5690921 0.8222738 0
vn -0.742166 0.6702161 0
vn -0.742166 0.6702161 0
vn -0.742166 0.6702161 0
vn 0.742166 0.6702161 0
vn 0.742166 0.6702161 0
vn 0.742166 0.6702161 0
vn 0.7421659 0.6702161 0

vt 0 0
vt 0 1.25
vt 1.25 0
vt 1.25 1.25
vt 0 3.75
vt 0 5
vt 1.25 3.75
vt 1.25 5
vt 2.5 0
vt 2.5 1.25
vt 3.75 0
vt 3.75 1.25
vt 5 0
vt 5 1.25
vt 3.75 2.5
vt 5 2.5
vt 3.75 3.75
vt 5 3.75
vt 3.75 5
vt 5 5
vt -1.25 0
vt -2.5 0
vt -1.375 0.1384192
vt -2.5 0.1384192
vt -1.25 0
vt -2.5 0
vt -1.375 0.1384192
vt -2.5 0.1384192
vt -3.75 0
vt -3.625 0.1384192
vt -3.75 0
vt -3.625 0.1384192
vt 0 1.375
vt 0 2.5
vt 1.25 1.375
vt 1.25 2.5
vt 0 3.625
vt 1.375 3.625
vt 2.5 1.45
vt 2.5 2.5
vt 2.5 3.75
vt 1.375 5
vt 2.5 5
vt 3.55 1.45
vt 3.55 2.5
vt 3.625 3.75
vt 3.625 5
vt 3.75 1.027842
vt 2.5 1.027842
vt 3.55 1.27107
vt 2.5 1.27107
vt 3.75 -2.51331
vt 2.5 -2.51331
vt 3.75 -2.326803
vt 2.5 -2.276537
vt 1.25 1.027842
vt 2.5 1.27107
vt 1.25 1.2094
vt 0 -2.51331
vt -1.25 -2.51331
vt 0 -2.326803
vt -1.375 -2.326803
vt 1.25 0.8377702
vt 0 0.8377702
vt 1.25 1.024277
vt 0 1.024277
vt 3.083527 2.5
vt 3.083527 1.25
vt 2.840299 2.5
vt 2.840299 1.45
vt 5 -2.51331
vt 5 -2.326803
vt 3.75 -2.326803
vt -3.75 0.8377702
vt -5 0.8377702
vt -3.625 1.024277
vt -5 1.024277

g TexturesCom_ConcreteBare0398_7_seamless_S
usemtl TexturesCom_ConcreteBare0398_7_seamless_S
usemap TexturesCom_ConcreteBare0398_7_seamless_S
f 2/2/2 1/1/1 3/3/3
f 4/4/4 2/2/2 3/3/3
f 6/6/6 5/5/5 7/7/7
f 8/8/8 6/6/6 7/7/7
f 4/4/4 3/3/3 9/9/9
f 10/10/10 4/4/4 9/9/9
f 10/10/10 9/9/9 11/11/11
f 12/12/12 10/10/10 11/11/11
f 12/12/12 11/11/11 13/13/13
f 14/14/14 12/12/12 13/13/13
f 15/15/15 12/12/12 14/14/14
f 16/16/16 15/15/15 14/14/14
f 17/17/17 15/15/15 16/16/16
f 18/18/18 17/17/17 16/16/16
f 19/19/19 17/17/17 18/18/18
f 20/20/20 19/19/19 18/18/18
f 22/22/22 21/21/21 23/23/23
f 24/24/24 22/22/22 23/23/23
f 26/26/26 25/25/25 27/27/27
f 28/28/28 26/26/26 27/27/27
f 29/29/29 22/22/22 24/24/24
f 30/30/30 29/29/29 24/24/24
f 31/31/31 26/26/26 28/28/28
f 32/32/32 31/31/31 28/28/28

g TexturesCom_ConcreteRough0076_1_seamless_S
usemtl TexturesCom_ConcreteRough0076_1_seamless_S
usemap TexturesCom_ConcreteRough0076_1_seamless_S
f 34/34/34 33/33/33 35/35/35
f 36/36/36 34/34/34 35/35/35
f 37/37/37 34/34/34 36/36/36
f 38/38/38 37/37/37 36/36/36
f 36/36/36 35/35/35 39/39/39
f 40/40/40 36/36/36 39/39/39
f 38/38/38 36/36/36 40/40/40
f 41/41/41 38/38/38 40/40/40
f 42/42/42 38/38/38 41/41/41
f 43/43/43 42/42/42 41/41/41
f 40/40/40 39/39/39 44/44/44
f 45/45/45 40/40/40 44/44/44
f 41/41/41 40/40/40 45/45/45
f 46/46/46 41/41/41 45/45/45
f 43/43/43 41/41/41 46/46/46
f 47/47/47 43/43/43 46/46/46
f 49/49/49 48/48/48 50/50/50
f 51/51/51 49/49/49 50/50/50
f 53/53/53 52/52/52 54/54/54
f 55/55/55 53/53/53 54/54/54
f 56/56/56 49/49/49 57/57/57
f 58/58/58 56/56/56 57/57/57
f 60/60/60 59/59/59 61/61/61
f 62/62/62 60/60/60 61/61/61
f 64/64/64 63/63/63 65/65/65
f 66/66/66 64/64/64 65/65/65
f 68/68/68 67/67/67 69/69/69
f 70/70/70 68/68/68 69/69/69
f 52/52/52 71/71/71 72/72/72
f 73/73/73 52/52/52 72/72/72
f 75/75/75 74/74/74 76/76/76
f 77/77/77 75/75/75 76/76/76
