mtllib ./pb-73014.mtl
g Plane 1
v 0 0 0
v 0 0 1.25
v -1.25 0 0
v -1.25 0 1.25
v 0 0 2.5
v -1.25 0 2.5
v 0 0 3.75
v -1.25 0 3.75
v 0 0 5
v -1.25 0 5
v -2.5 0 3.75
v -2.5 0 5
v -3.75 0 3.75
v -3.75 0 5
v -3.75 0 0
v -3.75 0 1.25
v -5 0 0
v -5 0 1.25
v -3.75 0 2.5
v -5 0 2.5
v -5 0 3.75
v -5 0 5
v -3.75 0 0
v -2.5 0 0
v -3.625 0.1384192 0
v -2.5 0.1384192 0
v -1.25 0 0
v -1.375 0.1384192 0
v -1.375 0.1384192 0
v -1.375 0.1384192 1.25
v -2.5 0.1384192 0
v -2.5 0.1384192 1.25
v -1.375 0.1384192 2.5
v -2.5 0.1384192 2.5
v -1.375 0.1384192 2.75
v -2.5 0.1384192 2.75
v -3.625 0.1384192 0
v -3.625 0.1384192 1.25
v -3.625 0.1384192 2.5
v -3.625 0.1384192 2.75
v -1.25 0 2.5
v -1.25 0 3.75
v -1.375 0.1384192 2.5
v -1.375 0.1384192 2.75
v -1.25 0 3.75
v -2.5 0 3.75
v -1.375 0.1384192 2.75
v -2.5 0.1384192 2.75
v -3.75 0 2.5
v -3.75 0 1.25
v -3.625 0.1384192 2.5
v -3.625 0.1384192 1.25
v -3.75 0 3.75
v -3.625 0.1384192 2.75
v -3.75 0 3.75
v -3.625 0.1384192 2.75
v -3.75 0 0
v -3.625 0.1384192 0
v -1.25 0 1.25
v -1.375 0.1384192 1.25
v -1.25 0 0
v -1.375 0.1384192 0

vn 0 1 0
vn 0 1 0
vn 0 1 0
vn 0 1 0
vn 0 1 0
vn 0 1 0
vn 0 1 0
vn 0 1 0
vn 0 1 0
vn 0 1 0
vn 0 1 0
vn 0 1 0
vn 0 1 0
vn 0 1 0
vn 0 1 0
vn 0 1 0
vn 0 1 0
vn 0 1 0
vn 0 1 0
vn 0 1 0
vn 0 1 0
vn 0 1 0
vn 0 0 -1
vn 0 0 -0.9999999
vn 0 0 -0.9999999
vn 0 0 -1
vn 0 0 -0.9999999
vn 0 0 -1
vn 0 1 0
vn 0 1 0
vn 0 1 0
vn 0 1 0
vn 0 1 0
vn 0 1 0
vn 0 1 0
vn 0 1 0
vn 0 1 0
vn 0 1 0
vn 0 1 0
vn 0 1 0
vn 0.742166 0.6702161 0
vn 0.742166 0.6702161 0
vn 0.742166 0.6702161 0
vn 0.742166 0.6702161 0
vn 0 0.9905556 0.1371119
vn 0 0.9905555 0.1371118
vn 0 0.9905555 0.1371118
vn 0 0.9905555 0.1371119
vn -0.742166 0.6702161 0
vn -0.742166 0.6702161 0
vn -0.742166 0.6702161 0
vn -0.742166 0.6702161 0
vn 0 0.9905555 0.1371118
vn 0 0.9905555 0.1371119
vn -0.742166 0.6702161 0
vn -0.742166 0.6702161 0
vn -0.742166 0.6702161 0
vn -0.742166 0.6702161 0
vn 0.742166 0.6702161 0
vn 0.742166 0.6702161 0
vn 0.742166 0.6702161 0
vn 0.742166 0.6702161 0

vt 0 0
vt 0 1.25
vt 1.25 0
vt 1.25 1.25
vt 0 2.5
vt 1.25 2.5
vt 0 3.75
vt 1.25 3.75
vt 0 5
vt 1.25 5
vt 2.5 3.75
vt 2.5 5
vt 3.75 3.75
vt 3.75 5
vt 3.75 0
vt 3.75 1.25
vt 5 0
vt 5 1.25
vt 3.75 2.5
vt 5 2.5
vt 5 3.75
vt 5 5
vt 3.75 0
vt 2.5 0
vt 3.625 0.1384192
vt 2.5 0.1384192
vt 1.25 0
vt 1.375 0.1384192
vt 1.375 0
vt 1.375 1.25
vt 2.5 0
vt 2.5 1.25
vt 1.375 2.5
vt 2.5 2.5
vt 1.375 2.75
vt 2.5 2.75
vt 3.625 0
vt 3.625 1.25
vt 3.625 2.5
vt 3.625 2.75
vt -2.5 0.8377702
vt -3.75 0.8377702
vt -2.5 1.024277
vt -2.75 1.024277
vt 1.25 3.714583
vt 2.5 3.714583
vt 1.375 2.705049
vt 2.5 2.705049
vt 2.5 -2.51331
vt 1.25 -2.51331
vt 2.5 -2.326803
vt 1.25 -2.326803
vt 3.75 3.714583
vt 3.625 2.705049
vt 3.75 -2.51331
vt 2.75 -2.326803
vt 0 -2.51331
vt 0 -2.326803
vt -1.25 0.8377702
vt -1.25 1.024277
vt 0 0.8377702
vt 0 1.024277

g TexturesCom_ConcreteBare0398_7_seamless_S
usemtl TexturesCom_ConcreteBare0398_7_seamless_S
usemap TexturesCom_ConcreteBare0398_7_seamless_S
f 2/2/2 1/1/1 3/3/3
f 4/4/4 2/2/2 3/3/3
f 5/5/5 2/2/2 4/4/4
f 6/6/6 5/5/5 4/4/4
f 7/7/7 5/5/5 6/6/6
f 8/8/8 7/7/7 6/6/6
f 9/9/9 7/7/7 8/8/8
f 10/10/10 9/9/9 8/8/8
f 10/10/10 8/8/8 11/11/11
f 12/12/12 10/10/10 11/11/11
f 12/12/12 11/11/11 13/13/13
f 14/14/14 12/12/12 13/13/13
f 16/16/16 15/15/15 17/17/17
f 18/18/18 16/16/16 17/17/17
f 19/19/19 16/16/16 18/18/18
f 20/20/20 19/19/19 18/18/18
f 13/13/13 19/19/19 20/20/20
f 21/21/21 13/13/13 20/20/20
f 14/14/14 13/13/13 21/21/21
f 22/22/22 14/14/14 21/21/21
f 24/24/24 23/23/23 25/25/25
f 26/26/26 24/24/24 25/25/25
f 27/27/27 24/24/24 26/26/26
f 28/28/28 27/27/27 26/26/26

g TexturesCom_ConcreteRough0076_1_seamless_S
usemtl TexturesCom_ConcreteRough0076_1_seamless_S
usemap TexturesCom_ConcreteRough0076_1_seamless_S
f 30/30/30 29/29/29 31/31/31
f 32/32/32 30/30/30 31/31/31
f 33/33/33 30/30/30 32/32/32
f 34/34/34 33/33/33 32/32/32
f 35/35/35 33/33/33 34/34/34
f 36/36/36 35/35/35 34/34/34
f 32/32/32 31/31/31 37/37/37
f 38/38/38 32/32/32 37/37/37
f 34/34/34 32/32/32 38/38/38
f 39/39/39 34/34/34 38/38/38
f 36/36/36 34/34/34 39/39/39
f 40/40/40 36/36/36 39/39/39
f 42/42/42 41/41/41 43/43/43
f 44/44/44 42/42/42 43/43/43
f 46/46/46 45/45/45 47/47/47
f 48/48/48 46/46/46 47/47/47
f 50/50/50 49/49/49 51/51/51
f 52/52/52 50/50/50 51/51/51
f 53/53/53 46/46/46 48/48/48
f 54/54/54 53/53/53 48/48/48
f 49/49/49 55/55/55 56/56/56
f 51/51/51 49/49/49 56/56/56
f 57/57/57 50/50/50 52/52/52
f 58/58/58 57/57/57 52/52/52
f 41/41/41 59/59/59 60/60/60
f 43/43/43 41/41/41 60/60/60
f 59/59/59 61/61/61 62/62/62
f 60/60/60 59/59/59 62/62/62
