mtllib ./pb-422310.mtl
g Small Wall 1-2
v 3 0 1
v -3 0 1
v 3 3 0.5
v -3 3 0.5
v -5.5 0 -7
v -3.5 0 -7
v -5 3 -7
v -4 2.630794 -7
v -3 0 -1
v 3 0 -1
v -3 2.630794 -0.5
v 3 2.630794 -0.5
v 3 0 -1
v 3 0 1
v 3 2.630794 -0.5
v 3 3 0.5
v 3 0 -1
v -3 0 -1
v 3 0 1
v -3 0 1
v 3 3 0.5
v -3 3 0.5
v 0.2307648 2.840328 0.09104729
v -0.2307648 2.840328 0.09104729
v 3 2.630794 -0.5
v 3 3 0.5
v 0.2307648 2.682832 -0.3189802
v 0.2307648 2.840328 0.09104729
v -3 3 0.5
v -3 2.630794 -0.5
v -0.2307648 2.840328 0.09104729
v -0.2307648 2.682832 -0.3189802
v -3 2.630794 -0.5
v 3 2.630794 -0.5
v -0.2307648 2.682832 -0.3189802
v 0.2307648 2.682832 -0.3189802
v -3 0 -1
v -5.5 0 -1
v -3 0 -1
v -3.5 0 -1
v -5.5 0 -1
v -3 3 0.5
v -3 0 1
v -5 3 -1
v -5.5 0 -1
v -3 2.630794 -0.5
v -3.5 0 -1
v -4 2.630794 -1
v -3 2.630794 -0.5
v -3 3 0.5
v -4 2.630794 -1
v -5 3 -1
v -5.5 0 -1
v -3.5 0 -1
v -5.5 0 -6.5
v -3.5 0 -6.5
v -5 3 -1
v -5.5 0 -1
v -5 3 -6.5
v -5.5 0 -6.5
v -3.5 0 -1
v -4 2.630794 -1
v -3.5 0 -6.5
v -4 2.630794 -6.5
v -4 2.630794 -1
v -5 3 -1
v -4 2.630794 -6.5
v -5 3 -6.5
v -5.5 0 -7
v -3.5 0 -7
v -5 3 -7
v -5.5 0 -7
v -3.5 0 -7
v -4 2.630794 -7
v -4 2.630794 -7
v -5 3 -7
v 0.1314367 2.744586 0.03606569
v -0.1314367 2.744586 0.03606569
v 0.1314367 2.654881 -0.1974737
v -0.1314367 2.654881 -0.1974737
v 0.2307648 2.840328 0.09104729
v -0.2307648 2.840328 0.09104729
v 0.1314367 2.744586 0.03606569
v -0.1314367 2.744586 0.03606569
v 0.2307648 2.682832 -0.3189802
v 0.2307648 2.840328 0.09104729
v 0.1314367 2.654881 -0.1974737
v 0.1314367 2.744586 0.03606569
v -0.2307648 2.840328 0.09104729
v -0.2307648 2.682832 -0.3189802
v -0.1314367 2.744586 0.03606569
v -0.1314367 2.654881 -0.1974737
v -0.2307648 2.682832 -0.3189802
v 0.2307648 2.682832 -0.3189802
v -0.1314367 2.654881 -0.1974737
v 0.1314367 2.654881 -0.1974737

vn 0 0.164399 0.986394
vn 0 0.164399 0.986394
vn 0 0.164399 0.986394
vn 0 0.164399 0.986394
vn 0 0 -1
vn 0 0 -1
vn 0 0 -1
vn 0 0 -1
vn 0 0.1867144 -0.9824143
vn 0 0.1867144 -0.9824143
vn 0 0.1867144 -0.9824143
vn 0 0.1867144 -0.9824143
vn 1 0 0
vn 1 0 0
vn 1 0 0
vn 1 0 0
vn 0 -1 0
vn 0 -1 0
vn 0 -1 0
vn 0 -1 0
vn 0 0.9315155 -0.3637016
vn 0 0.9315155 -0.3637016
vn 0 0.9315155 -0.3637016
vn 0 0.9315155 -0.3637016
vn -0.005012172 0.9380923 -0.3463493
vn -0.003804251 0.9367711 -0.3499219
vn -0.003804251 0.9367711 -0.3499219
vn -0.000872462 0.9335027 -0.3585695
vn 0.002941776 0.9381 -0.3463521
vn 0.003804254 0.9367712 -0.349922
vn 0.003804254 0.9367712 -0.349922
vn 0.005897132 0.9334866 -0.3585634
vn 0 0.961077 -0.2762806
vn 0 0.961077 -0.2762806
vn 0 0.961077 -0.2762806
vn 0 0.9610771 -0.2762804
vn 0 -1 0
vn 0 -1 0
vn 0 -1 0
vn 0 0 0
vn 0 -1 0
vn -0.5947368 0.1321637 0.7929823
vn -0.6097853 0.1161496 0.7840097
vn -0.6097853 0.1161496 0.7840097
vn -0.6213365 0.1035561 0.7766706
vn 0.3139677 0.1193433 -0.9419031
vn 0.3139677 0.1193433 -0.9419031
vn 0.4456069 0.08469057 -0.8912138
vn 0.170637 0.9243458 -0.341274
vn 0.2607087 0.8826668 -0.391063
vn 0.2607087 0.8826668 -0.391063
vn 0.3144431 0.8516741 -0.4192575
vn 0 -1 0
vn 0 -1 0
vn 0 -1 0
vn 0 -1 0
vn -0.9863939 0.164399 0
vn -0.9863939 0.164399 0
vn -0.9863939 0.164399 0
vn -0.9863939 0.164399 0
vn 0.9824143 0.1867144 0
vn 0.9824143 0.1867144 0
vn 0.9824143 0.1867144 0
vn 0.9824143 0.1867144 0
vn 0.3463536 0.938104 0
vn 0.3463536 0.938104 0
vn 0.3463536 0.938104 0
vn 0.3463536 0.938104 0
vn 0 -1 0
vn 0 -1 0
vn -0.9863939 0.164399 0
vn -0.9863939 0.164399 0
vn 0.9824142 0.1867144 0
vn 0.9824142 0.1867144 0
vn 0.3463536 0.938104 0
vn 0.3463536 0.938104 0
vn 0 0.933503 -0.3585695
vn 0 0.933503 -0.3585695
vn 0 0.933503 -0.3585695
vn 0 0.933503 -0.3585695
vn 0 0.4979933 -0.8671808
vn 0 0.4979933 -0.8671809
vn 0 0.4979933 -0.8671809
vn 0 0.4979933 -0.8671809
vn -0.5741881 0.7642807 -0.2935694
vn -0.5741882 0.7642807 -0.2935693
vn -0.5741882 0.7642807 -0.2935693
vn -0.5741882 0.7642806 -0.2935692
vn 0.5741882 0.7642806 -0.2935693
vn 0.5741882 0.7642807 -0.2935693
vn 0.5741882 0.7642807 -0.2935693
vn 0.5741881 0.7642808 -0.2935693
vn 0 0.9745473 0.224182
vn 0 0.9745473 0.224182
vn 0 0.9745473 0.224182
vn 0 0.9745473 0.224182

vt 3 -0.164399
vt -3 -0.164399
vt 3 2.876982
vt -3 2.876982
vt 5.5 0
vt 3.5 0
vt 5 3
vt 4 2.630794
vt 3 -0.1867144
vt -3 -0.1867144
vt 3 2.491172
vt -3 2.491172
vt 1 0
vt -1 0
vt 0.5 2.630794
vt -0.5 3
vt 3 -1
vt -3 -1
vt 3 1
vt -3 1
vt -3 1.556862
vt 3 1.556862
vt -0.2307648 1.117844
vt 0.2307648 1.117844
vt -3.014013 0.4365563
vt -3.015986 1.502534
vt -0.2450955 0.6295194
vt -0.245937 1.068717
vt 3.009393 1.504845
vt 3.008235 0.438866
vt 0.2396705 1.06891
vt 0.2391766 0.6297125
vt 3 0.2462989
vt -3 0.2462989
vt 0.2307648 0.4346499
vt -0.2307648 0.4346499
vt -3 -1
vt -5.5 -1
vt -3 -1
vt -3.5 -1
vt -5.5 -1
vt -2.1 2.682924
vt -1.8 -0.3436257
vt -4.6 2.682924
vt -5 -0.3304093
vt 3 2.491172
vt 3.5 -0.1867144
vt 4 2.397815
vt 3.427736 0.2270615
vt 3.49476 1.290932
vt 4.41112 -0.3048739
vt 5.461529 -0.2429204
vt -5.5 -1
vt -3.5 -1
vt -5.5 -6.5
vt -3.5 -6.5
vt -1 2.137187
vt -1 -0.9041945
vt -6.5 2.137187
vt -6.5 -0.9041945
vt 1 0.6535004
vt 1 3.331387
vt 6.5 0.6535004
vt 6.5 3.331387
vt 4.663601 -1
vt 5.729581 -1
vt 4.663601 -6.5
vt 5.729581 -6.5
vt -5.5 -7
vt -3.5 -7
vt -7 2.137187
vt -7 -0.9041945
vt 7 0.6535004
vt 7 3.331387
vt 4.663601 -7
vt 5.729581 -7
vt -0.1314367 1.017792
vt 0.1314367 1.017792
vt -0.1314367 0.7676171
vt 0.1314367 0.7676171
vt -0.2307648 2.508419
vt 0.2307648 2.508419
vt -0.1314367 2.398013
vt 0.1314367 2.398013
vt -1.795953 0.2840741
vt -1.890554 0.7130011
vt -1.69975 0.4111813
vt -1.753632 0.6554852
vt 1.890554 0.713001
vt 1.795953 0.284074
vt 1.753633 0.6554851
vt 1.699751 0.4111812
vt 0.2307648 -0.9123038
vt -0.2307648 -0.9123038
vt 0.1314367 -0.7876238
vt -0.1314367 -0.7876238

g TexturesCom_ConcreteFence0027_1_seamless_S
usemtl TexturesCom_ConcreteFence0027_1_seamless_S
usemap TexturesCom_ConcreteFence0027_1_seamless_S
f 2/2/2 1/1/1 3/3/3
f 4/4/4 2/2/2 3/3/3
f 6/6/6 5/5/5 7/7/7
f 8/8/8 6/6/6 7/7/7
f 10/10/10 9/9/9 11/11/11
f 12/12/12 10/10/10 11/11/11
f 14/14/14 13/13/13 15/15/15
f 16/16/16 14/14/14 15/15/15
f 18/18/18 17/17/17 19/19/19
f 20/20/20 18/18/18 19/19/19
f 22/22/22 21/21/21 23/23/23
f 24/24/24 22/22/22 23/23/23
f 26/26/26 25/25/25 27/27/27
f 28/28/28 26/26/26 27/27/27
f 30/30/30 29/29/29 31/31/31
f 32/32/32 30/30/30 31/31/31
f 34/34/34 33/33/33 35/35/35
f 36/36/36 34/34/34 35/35/35
f 37/37/37 20/20/20 38/38/38
f 40/40/40 39/39/39 41/41/41
f 43/43/43 42/42/42 44/44/44
f 45/45/45 43/43/43 44/44/44
f 46/46/46 9/9/9 47/47/47
f 48/48/48 46/46/46 47/47/47
f 50/50/50 49/49/49 51/51/51
f 52/52/52 50/50/50 51/51/51
f 54/54/54 53/53/53 55/55/55
f 56/56/56 54/54/54 55/55/55
f 58/58/58 57/57/57 59/59/59
f 60/60/60 58/58/58 59/59/59
f 62/62/62 61/61/61 63/63/63
f 64/64/64 62/62/62 63/63/63
f 66/66/66 65/65/65 67/67/67
f 68/68/68 66/66/66 67/67/67
f 56/56/56 55/55/55 69/69/69
f 70/70/70 56/56/56 69/69/69
f 60/60/60 59/59/59 71/71/71
f 72/72/72 60/60/60 71/71/71
f 64/64/64 63/63/63 73/73/73
f 74/74/74 64/64/64 73/73/73
f 68/68/68 67/67/67 75/75/75
f 76/76/76 68/68/68 75/75/75

g TexturesCom_ConcreteBare0398_7_seamless_S
usemtl TexturesCom_ConcreteBare0398_7_seamless_S
usemap TexturesCom_ConcreteBare0398_7_seamless_S
f 78/78/78 77/77/77 79/79/79
f 80/80/80 78/78/78 79/79/79
f 82/82/82 81/81/81 83/83/83
f 84/84/84 82/82/82 83/83/83
f 86/86/86 85/85/85 87/87/87
f 88/88/88 86/86/86 87/87/87
f 90/90/90 89/89/89 91/91/91
f 92/92/92 90/90/90 91/91/91
f 94/94/94 93/93/93 95/95/95
f 96/96/96 94/94/94 95/95/95
