# Aspose.3D Wavefront OBJ Exporter
# Copyright 2004-2021 Aspose Pty Ltd.
# File created: 12/07/2021 11:03:49

mtllib material.lib

#
# object Gem.001
#

v 0.414214 -0.216479 -0.414214
v 0 -0.757675 1.76344E-07
v 0 -0.216479 -0.585786
v 0.414214 0.32471699999999996 -1
v 0.414214 -0.216479 -0.414214
v 0.414214 0.32471699999999996 -1
v 1 0.324718 -0.414214
v 1 0.324718 -0.414214
v 0.414214 0.32471699999999996 -1
v 0.704163 0.541196 -0.704163
v 0.704163 0.541196 -0.704163
v 0.414214 0.32471699999999996 -1
v 0 0.541196 -0.995837
v 0.28995 0.757674 -0.69999999999999992
v 0.704163 0.541196 -0.704163
v 0.28995 0.757674 -0.69999999999999992
v 0.69999999999999992 0.757674 -0.28995
v 0.58578699999999992 -0.216479 8.8172E-08
v 0 -0.757675 1.76344E-07
v 0.414214 -0.216479 -0.414214
v 1 0.324718 -0.414214
v 0.58578699999999992 -0.216479 8.8172E-08
v 1 0.324718 -0.414214
v 1 0.324718 0.414214
v 1 0.324718 0.414214
v 1 0.324718 -0.414214
v 0.995837 0.541196 -3.52688E-08
v 0.995837 0.541196 -3.52688E-08
v 1 0.324718 -0.414214
v 0.704163 0.541196 -0.704163
v 0.69999999999999992 0.757674 -0.28995
v 0.995837 0.541196 -3.52688E-08
v 0.69999999999999992 0.757674 -0.28995
v 0.69999999999999992 0.757675 0.289949
v 0.414214 -0.216478 0.414214
v 0 -0.757675 1.76344E-07
v 0.58578699999999992 -0.216479 8.8172E-08
v 1 0.324718 0.414214
v 0.414214 -0.216478 0.414214
v 1 0.324718 0.414214
v 0.414214 0.324718 1
v 0.414214 0.324718 1
v 1 0.324718 0.414214
v 0.704163 0.541196 0.704163
v 0.704163 0.541196 0.704163
v 1 0.324718 0.414214
v 0.995837 0.541196 -3.52688E-08
v 0.69999999999999992 0.757675 0.289949
v 0.704163 0.541196 0.704163
v 0.69999999999999992 0.757675 0.289949
v 0.28995 0.757675 0.69999999999999992
v 7.17382E-17 -0.216478 0.58578699999999992
v 0 -0.757675 1.76344E-07
v 0.414214 -0.216478 0.414214
v 0.414214 0.324718 1
v 7.17382E-17 -0.216478 0.58578699999999992
v 0.414214 0.324718 1
v -0.414214 0.324718 1
v -0.414214 0.324718 1
v 0.414214 0.324718 1
v 1.21955E-16 0.541196 0.995837
v 1.21955E-16 0.541196 0.995837
v 0.414214 0.324718 1
v 0.704163 0.541196 0.704163
v 0.28995 0.757675 0.69999999999999992
v 1.21955E-16 0.541196 0.995837
v 0.28995 0.757675 0.69999999999999992
v -0.28995 0.757675 0.69999999999999992
v -0.414214 -0.216478 0.414214
v 0 -0.757675 1.76344E-07
v 7.17382E-17 -0.216478 0.58578699999999992
v -0.414214 0.324718 1
v -0.414214 -0.216478 0.414214
v -0.414214 0.324718 1
v -1 0.324718 0.414214
v -1 0.324718 0.414214
v -0.414214 0.324718 1
v -0.704163 0.541196 0.704163
v -0.704163 0.541196 0.704163
v -0.414214 0.324718 1
v 1.21955E-16 0.541196 0.995837
v -0.28995 0.757675 0.69999999999999992
v -0.704163 0.541196 0.704163
v -0.28995 0.757675 0.69999999999999992
v -0.69999999999999992 0.757675 0.289949
v -0.58578699999999992 -0.216479 8.8172E-08
v 0 -0.757675 1.76344E-07
v -0.414214 -0.216478 0.414214
v -1 0.324718 0.414214
v -0.58578699999999992 -0.216479 8.8172E-08
v -1 0.324718 0.414214
v -1 0.324718 -0.414214
v -1 0.324718 -0.414214
v -1 0.324718 0.414214
v -0.995837 0.541196 -3.52688E-08
v -0.995837 0.541196 -3.52688E-08
v -1 0.324718 0.414214
v -0.704163 0.541196 0.704163
v -0.69999999999999992 0.757675 0.289949
v -0.995837 0.541196 -3.52688E-08
v -0.69999999999999992 0.757675 0.289949
v -0.69999999999999992 0.757674 -0.28995
v -0.414214 -0.216479 -0.414214
v 0 -0.757675 1.76344E-07
v -0.58578699999999992 -0.216479 8.8172E-08
v -1 0.324718 -0.414214
v -0.414214 -0.216479 -0.414214
v -1 0.324718 -0.414214
v -0.414214 0.32471699999999996 -1
v -0.414214 0.32471699999999996 -1
v -1 0.324718 -0.414214
v -0.704163 0.541196 -0.704163
v -0.704163 0.541196 -0.704163
v -1 0.324718 -0.414214
v -0.995837 0.541196 -3.52688E-08
v -0.69999999999999992 0.757674 -0.28995
v -0.704163 0.541196 -0.704163
v -0.69999999999999992 0.757674 -0.28995
v -0.28995 0.757674 -0.69999999999999992
v 0 -0.216479 -0.585786
v 0 -0.757675 1.76344E-07
v -0.414214 -0.216479 -0.414214
v -0.414214 0.32471699999999996 -1
v 0 -0.216479 -0.585786
v -0.414214 0.32471699999999996 -1
v 0.414214 0.32471699999999996 -1
v 0.414214 0.32471699999999996 -1
v -0.414214 0.32471699999999996 -1
v 0 0.541196 -0.995837
v 0 0.541196 -0.995837
v -0.414214 0.32471699999999996 -1
v -0.704163 0.541196 -0.704163
v -0.28995 0.757674 -0.69999999999999992
v 0 0.541196 -0.995837
v -0.28995 0.757674 -0.69999999999999992
v 0.28995 0.757674 -0.69999999999999992
v 0.28995 0.757674 -0.69999999999999992
v -0.28995 0.757674 -0.69999999999999992
v 0 0.757675 -7.05376E-08
v 0.69999999999999992 0.757674 -0.28995
v 0.69999999999999992 0.757675 0.289949
v 0.28995 0.757675 0.69999999999999992
v -0.28995 0.757675 0.69999999999999992
v -0.69999999999999992 0.757675 0.289949
v -0.69999999999999992 0.757674 -0.28995
# 145 vertices

vn 0.270598 -0.70710700000000008 -0.653281
vn 0.270598 -0.70710700000000008 -0.653281
vn 0.270598 -0.70710700000000008 -0.653281
vn 0.270598 -0.70710700000000008 -0.653281
vn 0.56151700000000008 -0.607781 -0.56151700000000008
vn 0.56151700000000008 -0.607781 -0.56151700000000008
vn 0.56151700000000008 -0.607781 -0.56151700000000008
vn 0.70697600000000008 0.0192275 -0.70697600000000008
vn 0.70697600000000008 0.0192275 -0.70697600000000008
vn 0.70697600000000008 0.0192275 -0.70697600000000008
vn 0.306147 0.6 -0.739104
vn 0.306147 0.6 -0.739104
vn 0.306147 0.6 -0.739104
vn 0.306147 0.6 -0.739104
vn 0.417569 0.807014 -0.417569
vn 0.417569 0.807014 -0.417569
vn 0.417569 0.807014 -0.417569
vn 0.653282 -0.70710700000000008 -0.270598
vn 0.653282 -0.70710700000000008 -0.270598
vn 0.653282 -0.70710700000000008 -0.270598
vn 0.653282 -0.70710700000000008 -0.270598
vn 0.794105 -0.607781 9.90201E-08
vn 0.794105 -0.607781 9.90201E-08
vn 0.794105 -0.607781 9.90201E-08
vn 0.999815 0.0192273 -3.13252E-09
vn 0.999815 0.0192273 -3.13252E-09
vn 0.999815 0.0192273 -3.13252E-09
vn 0.739104 0.6 -0.306147
vn 0.739104 0.6 -0.306147
vn 0.739104 0.6 -0.306147
vn 0.739104 0.6 -0.306147
vn 0.59053199999999992 0.807014 -1.31479E-07
vn 0.59053199999999992 0.807014 -1.31479E-07
vn 0.59053199999999992 0.807014 -1.31479E-07
vn 0.653281 -0.70710700000000008 0.270598
vn 0.653281 -0.70710700000000008 0.270598
vn 0.653281 -0.70710700000000008 0.270598
vn 0.653281 -0.70710700000000008 0.270598
vn 0.56151700000000008 -0.607781 0.56151700000000008
vn 0.56151700000000008 -0.607781 0.56151700000000008
vn 0.56151700000000008 -0.607781 0.56151700000000008
vn 0.70697600000000008 0.0192278 0.70697600000000008
vn 0.70697600000000008 0.0192278 0.70697600000000008
vn 0.70697600000000008 0.0192278 0.70697600000000008
vn 0.739104 0.6 0.306147
vn 0.739104 0.6 0.306147
vn 0.739104 0.6 0.306147
vn 0.739104 0.6 0.306147
vn 0.417569 0.807014 0.417569
vn 0.417569 0.807014 0.417569
vn 0.417569 0.807014 0.417569
vn 0.270598 -0.70710700000000008 0.653282
vn 0.270598 -0.70710700000000008 0.653282
vn 0.270598 -0.70710700000000008 0.653282
vn 0.270598 -0.70710700000000008 0.653282
vn 0 -0.607781 0.794105
vn 0 -0.607781 0.794105
vn 0 -0.607781 0.794105
vn 0 0.0192276 0.999815
vn 0 0.0192276 0.999815
vn 0 0.0192276 0.999815
vn 0.306147 0.6 0.739104
vn 0.306147 0.6 0.739104
vn 0.306147 0.6 0.739104
vn 0.306147 0.6 0.739104
vn 0 0.807014 0.59053199999999992
vn 0 0.807014 0.59053199999999992
vn 0 0.807014 0.59053199999999992
vn -0.270598 -0.70710700000000008 0.653282
vn -0.270598 -0.70710700000000008 0.653282
vn -0.270598 -0.70710700000000008 0.653282
vn -0.270598 -0.70710700000000008 0.653282
vn -0.56151700000000008 -0.607781 0.56151700000000008
vn -0.56151700000000008 -0.607781 0.56151700000000008
vn -0.56151700000000008 -0.607781 0.56151700000000008
vn -0.70697600000000008 0.0192278 0.70697600000000008
vn -0.70697600000000008 0.0192278 0.70697600000000008
vn -0.70697600000000008 0.0192278 0.70697600000000008
vn -0.306147 0.6 0.739104
vn -0.306147 0.6 0.739104
vn -0.306147 0.6 0.739104
vn -0.306147 0.6 0.739104
vn -0.417569 0.807014 0.417569
vn -0.417569 0.807014 0.417569
vn -0.417569 0.807014 0.417569
vn -0.653282 -0.70710700000000008 0.270598
vn -0.653282 -0.70710700000000008 0.270598
vn -0.653282 -0.70710700000000008 0.270598
vn -0.653282 -0.70710700000000008 0.270598
vn -0.794105 -0.607781 9.90201E-08
vn -0.794105 -0.607781 9.90201E-08
vn -0.794105 -0.607781 9.90201E-08
vn -0.999815 0.0192273 -3.13252E-09
vn -0.999815 0.0192273 -3.13252E-09
vn -0.999815 0.0192273 -3.13252E-09
vn -0.739104 0.6 0.306147
vn -0.739104 0.6 0.306147
vn -0.739104 0.6 0.306147
vn -0.739104 0.6 0.306147
vn -0.59053199999999992 0.807014 -1.31479E-07
vn -0.59053199999999992 0.807014 -1.31479E-07
vn -0.59053199999999992 0.807014 -1.31479E-07
vn -0.653281 -0.70710700000000008 -0.270598
vn -0.653281 -0.70710700000000008 -0.270598
vn -0.653281 -0.70710700000000008 -0.270598
vn -0.653281 -0.70710700000000008 -0.270598
vn -0.56151700000000008 -0.607781 -0.56151700000000008
vn -0.56151700000000008 -0.607781 -0.56151700000000008
vn -0.56151700000000008 -0.607781 -0.56151700000000008
vn -0.70697600000000008 0.0192275 -0.70697600000000008
vn -0.70697600000000008 0.0192275 -0.70697600000000008
vn -0.70697600000000008 0.0192275 -0.70697600000000008
vn -0.739104 0.6 -0.306147
vn -0.739104 0.6 -0.306147
vn -0.739104 0.6 -0.306147
vn -0.739104 0.6 -0.306147
vn -0.417569 0.807014 -0.417569
vn -0.417569 0.807014 -0.417569
vn -0.417569 0.807014 -0.417569
vn -0.270598 -0.70710700000000008 -0.653281
vn -0.270598 -0.70710700000000008 -0.653281
vn -0.270598 -0.70710700000000008 -0.653281
vn -0.270598 -0.70710700000000008 -0.653281
vn 0 -0.607781 -0.794104
vn 0 -0.607781 -0.794104
vn 0 -0.607781 -0.794104
vn 0 0.0192273 -0.999815
vn 0 0.0192273 -0.999815
vn 0 0.0192273 -0.999815
vn -0.306147 0.6 -0.739104
vn -0.306147 0.6 -0.739104
vn -0.306147 0.6 -0.739104
vn -0.306147 0.6 -0.739104
vn 0 0.807014 -0.59053199999999992
vn 0 0.807014 -0.59053199999999992
vn 0 0.807014 -0.59053199999999992
vn 0 1 -1.62921E-07
vn 0 1 -1.62921E-07
vn 0 1 -1.62921E-07
vn 8.6014E-08 1 -1.62921E-07
vn 0 1 -1.62921E-07
vn 8.6014E-08 1 -1.62921E-07
vn 0 1 -1.62921E-07
vn -8.6014E-08 1 -1.62921E-07
vn 0 1 -1.62921E-07
# 145 vertex normals

vt 0.32857199999999996 0.32857199999999996 0
vt 0.249999 0.249999 0
vt 0.361118 0.249999 0
vt 0.499848 0.35349000000000004 0
vt 0.32857199999999996 0.32857199999999996 0
vt 0.499848 0.35349000000000004 0
vt 0.35349000000000004 0.499848 0
vt 0.35157500000000004 0.99985 0
vt 0.145587 0.998819 0
vt 0.248682 0.952923 0
vt 0.248682 0.952923 0
vt 0.145587 0.998819 0
vt 0.106367 0.892735 0
vt 0.194897 0.882012 0
vt 0.248682 0.952923 0
vt 0.194897 0.882012 0
vt 0.303087 0.88245 0
vt 0.249999 0.361119 0
vt 0.249999 0.249999 0
vt 0.32857199999999996 0.32857199999999996 0
vt 0.35349000000000004 0.499848 0
vt 0.249999 0.361119 0
vt 0.35349000000000004 0.499848 0
vt 0.146508 0.499848 0
vt 0.497437 0.853972 0
vt 0.35157500000000004 0.99985 0
vt 0.39151 0.894074 0
vt 0.39151 0.894074 0
vt 0.35157500000000004 0.99985 0
vt 0.248682 0.952923 0
vt 0.303087 0.88245 0
vt 0.39151 0.894074 0
vt 0.303087 0.88245 0
vt 0.379481 0.805335 0
vt 0.171426 0.32857199999999996 0
vt 0.249999 0.249999 0
vt 0.249999 0.361119 0
vt 0.146508 0.499848 0
vt 0.171426 0.32857199999999996 0
vt 0.146508 0.499848 0
vt 0.000149789 0.35349000000000004 0
vt 0.497437 0.647396 0
vt 0.497437 0.853972 0
vt 0.45069 0.750725 0
vt 0.45069 0.750725 0
vt 0.497437 0.853972 0
vt 0.39151 0.894074 0
vt 0.379481 0.805335 0
vt 0.45069 0.750725 0
vt 0.379481 0.805335 0
vt 0.379228 0.69613100000000008 0
vt 0.13888 0.249999 0
vt 0.249999 0.249999 0
vt 0.171426 0.32857199999999996 0
vt 0.000149789 0.35349000000000004 0
vt 0.13888 0.249999 0
vt 0.000149789 0.35349000000000004 0
vt 0.000149819 0.146508 0
vt 0.35185 0.500841 0
vt 0.497437 0.647396 0
vt 0.39145 0.607035 0
vt 0.39145 0.607035 0
vt 0.497437 0.647396 0
vt 0.45069 0.750725 0
vt 0.379228 0.69613100000000008 0
vt 0.39145 0.607035 0
vt 0.379228 0.69613100000000008 0
vt 0.302444 0.618479 0
vt 0.171426 0.171426 0
vt 0.249999 0.249999 0
vt 0.13888 0.249999 0
vt 0.000149819 0.146508 0
vt 0.171426 0.171426 0
vt 0.000149819 0.146508 0
vt 0.146508 0.000149789 0
vt 0.145559 0.500148 0
vt 0.35185 0.500841 0
vt 0.248438 0.547045 0
vt 0.248438 0.547045 0
vt 0.35185 0.500841 0
vt 0.39145 0.607035 0
vt 0.302444 0.618479 0
vt 0.248438 0.547045 0
vt 0.302444 0.618479 0
vt 0.193899 0.617609 0
vt 0.249999 0.138879 0
vt 0.249999 0.249999 0
vt 0.171426 0.171426 0
vt 0.146508 0.000149789 0
vt 0.249999 0.138879 0
vt 0.146508 0.000149789 0
vt 0.35349000000000004 0.000149798 0
vt 0.000149789 0.64605199999999992 0
vt 0.145559 0.500148 0
vt 0.105635 0.605955 0
vt 0.105635 0.605955 0
vt 0.145559 0.500148 0
vt 0.248438 0.547045 0
vt 0.193899 0.617609 0
vt 0.105635 0.605955 0
vt 0.193899 0.617609 0
vt 0.117453 0.694169 0
vt 0.32857199999999996 0.171426 0
vt 0.249999 0.249999 0
vt 0.249999 0.138879 0
vt 0.35349000000000004 0.000149798 0
vt 0.32857199999999996 0.171426 0
vt 0.35349000000000004 0.000149798 0
vt 0.499848 0.146508 0
vt 0.000970006 0.852078 0
vt 0.000149789 0.64605199999999992 0
vt 0.0470896 0.748954 0
vt 0.0470896 0.748954 0
vt 0.000149789 0.64605199999999992 0
vt 0.105635 0.605955 0
vt 0.117453 0.694169 0
vt 0.0470896 0.748954 0
vt 0.117453 0.694169 0
vt 0.119166 0.803348 0
vt 0.361118 0.249999 0
vt 0.249999 0.249999 0
vt 0.32857199999999996 0.171426 0
vt 0.499848 0.146508 0
vt 0.361118 0.249999 0
vt 0.499848 0.146508 0
vt 0.499848 0.35349000000000004 0
vt 0.145587 0.998819 0
vt 0.000970006 0.852078 0
vt 0.106367 0.892735 0
vt 0.106367 0.892735 0
vt 0.000970006 0.852078 0
vt 0.0470896 0.748954 0
vt 0.119166 0.803348 0
vt 0.106367 0.892735 0
vt 0.119166 0.803348 0
vt 0.194897 0.882012 0
vt 0.500148 0.146508 0
vt 0.646506 0.000149819 0
vt 0.749997 0.249999 0
vt 0.500148 0.35349000000000004 0
vt 0.646506 0.499848 0
vt 0.853488 0.499848 0
vt 0.999846 0.35349000000000004 0
vt 0.999846 0.146508 0
vt 0.853488 0.000149789 0
# 145 texture coords

g Gem.001
usemtl DefaultMaterial
s 1
f 4/4/4 1/1/1 2/2/2
f 2/2/2 3/3/3 4/4/4
f 5/5/5 6/6/6 7/7/7
f 8/8/8 9/9/9 10/10/10
f 14/14/14 11/11/11 12/12/12
f 12/12/12 13/13/13 14/14/14
f 15/15/15 16/16/16 17/17/17
f 21/21/21 18/18/18 19/19/19
f 19/19/19 20/20/20 21/21/21
f 22/22/22 23/23/23 24/24/24
f 25/25/25 26/26/26 27/27/27
f 31/31/31 28/28/28 29/29/29
f 29/29/29 30/30/30 31/31/31
f 32/32/32 33/33/33 34/34/34
f 38/38/38 35/35/35 36/36/36
f 36/36/36 37/37/37 38/38/38
f 39/39/39 40/40/40 41/41/41
f 42/42/42 43/43/43 44/44/44
f 48/48/48 45/45/45 46/46/46
f 46/46/46 47/47/47 48/48/48
f 49/49/49 50/50/50 51/51/51
f 55/55/55 52/52/52 53/53/53
f 53/53/53 54/54/54 55/55/55
f 56/56/56 57/57/57 58/58/58
f 59/59/59 60/60/60 61/61/61
f 65/65/65 62/62/62 63/63/63
f 63/63/63 64/64/64 65/65/65
f 66/66/66 67/67/67 68/68/68
f 72/72/72 69/69/69 70/70/70
f 70/70/70 71/71/71 72/72/72
f 73/73/73 74/74/74 75/75/75
f 76/76/76 77/77/77 78/78/78
f 82/82/82 79/79/79 80/80/80
f 80/80/80 81/81/81 82/82/82
f 83/83/83 84/84/84 85/85/85
f 89/89/89 86/86/86 87/87/87
f 87/87/87 88/88/88 89/89/89
f 90/90/90 91/91/91 92/92/92
f 93/93/93 94/94/94 95/95/95
f 99/99/99 96/96/96 97/97/97
f 97/97/97 98/98/98 99/99/99
f 100/100/100 101/101/101 102/102/102
f 106/106/106 103/103/103 104/104/104
f 104/104/104 105/105/105 106/106/106
f 107/107/107 108/108/108 109/109/109
f 110/110/110 111/111/111 112/112/112
f 116/116/116 113/113/113 114/114/114
f 114/114/114 115/115/115 116/116/116
f 117/117/117 118/118/118 119/119/119
f 123/123/123 120/120/120 121/121/121
f 121/121/121 122/122/122 123/123/123
f 124/124/124 125/125/125 126/126/126
f 127/127/127 128/128/128 129/129/129
f 133/133/133 130/130/130 131/131/131
f 131/131/131 132/132/132 133/133/133
f 134/134/134 135/135/135 136/136/136
f 137/137/137 138/138/138 139/139/139
f 139/139/139 140/140/140 137/137/137
f 139/139/139 141/141/141 140/140/140
f 139/139/139 142/142/142 141/141/141
f 139/139/139 143/143/143 142/142/142
f 139/139/139 144/144/144 143/143/143
f 139/139/139 145/145/145 144/144/144
f 139/139/139 138/138/138 145/145/145
#64 polygons

