mtllib ./pb44932.mtl
g Stairs 2
v 0 0 0
v 5 0 0
v 0 0.5 0
v 5 0.5 0
v 0 0.5 0
v 5 0.5 0
v 4.815326 0.5 2.346517
v -0.1231165 0.5 1.564345
v -0.1231165 0.5 1.564345
v 4.815326 0.5 2.346517
v -0.1231165 1 1.564345
v 4.815326 1 2.346517
v -0.1231165 1 1.564345
v 4.815326 1 2.346517
v 4.265848 1 4.635255
v -0.4894342 1 3.09017
v -0.4894342 1 3.09017
v 4.265848 1 4.635255
v -0.4894342 1.5 3.09017
v 4.265848 1.5 4.635255
v -0.4894342 1.5 3.09017
v 4.265848 1.5 4.635255
v 3.365098 1.5 6.809858
v -1.089934 1.5 4.539905
v -1.089934 1.5 4.539905
v 3.365098 1.5 6.809858
v -1.089934 2 4.539905
v 3.365098 2 6.809858
v -1.089934 2 4.539905
v 3.365098 2 6.809858
v 2.135255 2 8.816778
v -1.90983 2 5.877852
v -1.90983 2 5.877852
v 2.135255 2 8.816778
v -1.90983 2.5 5.877852
v 2.135255 2.5 8.816778
v -1.90983 2.5 5.877852
v 2.135255 2.5 8.816778
v 0.6066017 2.5 10.6066
v -2.928932 2.5 7.071068
v -2.928932 2.5 7.071068
v 0.6066017 2.5 10.6066
v -2.928932 3 7.071068
v 0.6066017 3 10.6066
v -2.928932 3 7.071068
v 0.6066017 3 10.6066
v -1.183222 3 12.13525
v -4.122148 3 8.09017
v -4.122148 3 8.09017
v -1.183222 3 12.13525
v -4.122148 3.5 8.09017
v -1.183222 3.5 12.13525
v -4.122148 3.5 8.09017
v -1.183222 3.5 12.13525
v -3.190142 3.5 13.3651
v -5.460095 3.5 8.910066
v -5.460095 3.5 8.910066
v -3.190142 3.5 13.3651
v -5.460095 4 8.910066
v -3.190142 4 13.3651
v -5.460095 4 8.910066
v -3.190142 4 13.3651
v -5.364746 4 14.26585
v -6.90983 4 9.510566
v -6.90983 4 9.510566
v -5.364746 4 14.26585
v -6.90983 4.5 9.510566
v -5.364746 4.5 14.26585
v -6.90983 4.5 9.510566
v -5.364746 4.5 14.26585
v -7.653484 4.5 14.81533
v -8.435657 4.5 9.876884
v -8.435657 4.5 9.876884
v -7.653484 4.5 14.81533
v -8.435657 5 9.876884
v -7.653484 5 14.81533
v -8.435657 5 9.876884
v -7.653484 5 14.81533
v -10 5 15
v -10 5 10
v 0 0 0
v -0.1231165 0 1.564345
v 0 0.5 0
v -0.1231165 0.5 1.564345
v -0.1231165 0 1.564345
v -0.4894342 0 3.09017
v -0.1231165 0.5 1.564345
v -0.4894342 1 3.09017
v -0.1231165 0.5 1.564345
v -0.4894342 1 3.09017
v -0.1231165 1 1.564345
v -0.4894342 0 3.09017
v -1.089934 0 4.539905
v -0.4894342 1 3.09017
v -1.089934 1.5 4.539905
v -0.4894342 1 3.09017
v -1.089934 1.5 4.539905
v -0.4894342 1.5 3.09017
v -1.089934 0 4.539905
v -1.90983 0 5.877852
v -1.089934 1.5 4.539905
v -1.90983 2 5.877852
v -1.089934 1.5 4.539905
v -1.90983 2 5.877852
v -1.089934 2 4.539905
v -1.90983 0 5.877852
v -2.928932 0 7.071068
v -1.90983 2 5.877852
v -2.928932 2.5 7.071068
v -1.90983 2 5.877852
v -2.928932 2.5 7.071068
v -1.90983 2.5 5.877852
v -2.928932 0 7.071068
v -4.122148 0 8.09017
v -2.928932 2.5 7.071068
v -4.122148 3 8.09017
v -2.928932 2.5 7.071068
v -4.122148 3 8.09017
v -2.928932 3 7.071068
v -4.122148 0 8.09017
v -5.460095 0 8.910066
v -4.122148 3 8.09017
v -5.460095 3.5 8.910066
v -4.122148 3 8.09017
v -5.460095 3.5 8.910066
v -4.122148 3.5 8.09017
v -5.460095 0 8.910066
v -6.90983 0 9.510566
v -5.460095 3.5 8.910066
v -6.90983 4 9.510566
v -5.460095 3.5 8.910066
v -6.90983 4 9.510566
v -5.460095 4 8.910066
v -6.90983 0 9.510566
v -8.435657 0 9.876884
v -6.90983 4 9.510566
v -8.435657 4.5 9.876884
v -6.90983 4 9.510566
v -8.435657 4.5 9.876884
v -6.90983 4.5 9.510566
v -8.435657 0 9.876884
v -10 0 10
v -8.435657 4.5 9.876884
v -10 5 10
v -8.435657 4.5 9.876884
v -10 5 10
v -8.435657 5 9.876884
v 5 0 0
v 4.815326 0 2.346517
v 5 0.5 0
v 4.815326 0.5 2.346517
v 4.815326 0 2.346517
v 4.265848 0 4.635255
v 4.815326 0.5 2.346517
v 4.265848 1 4.635255
v 4.815326 0.5 2.346517
v 4.265848 1 4.635255
v 4.815326 1 2.346517
v 4.265848 0 4.635255
v 3.365098 0 6.809858
v 4.265848 1 4.635255
v 3.365098 1.5 6.809858
v 4.265848 1 4.635255
v 3.365098 1.5 6.809858
v 4.265848 1.5 4.635255
v 3.365098 0 6.809858
v 2.135255 0 8.816778
v 3.365098 1.5 6.809858
v 2.135255 2 8.816778
v 3.365098 1.5 6.809858
v 2.135255 2 8.816778
v 3.365098 2 6.809858
v 2.135255 0 8.816778
v 0.6066017 0 10.6066
v 2.135255 2 8.816778
v 0.6066017 2.5 10.6066
v 2.135255 2 8.816778
v 0.6066017 2.5 10.6066
v 2.135255 2.5 8.816778
v 0.6066017 0 10.6066
v -1.183222 0 12.13525
v 0.6066017 2.5 10.6066
v -1.183222 3 12.13525
v 0.6066017 2.5 10.6066
v -1.183222 3 12.13525
v 0.6066017 3 10.6066
v -1.183222 0 12.13525
v -3.190142 0 13.3651
v -1.183222 3 12.13525
v -3.190142 3.5 13.3651
v -1.183222 3 12.13525
v -3.190142 3.5 13.3651
v -1.183222 3.5 12.13525
v -3.190142 0 13.3651
v -5.364746 0 14.26585
v -3.190142 3.5 13.3651
v -5.364746 4 14.26585
v -3.190142 3.5 13.3651
v -5.364746 4 14.26585
v -3.190142 4 13.3651
v -5.364746 0 14.26585
v -7.653484 0 14.81533
v -5.364746 4 14.26585
v -7.653484 4.5 14.81533
v -5.364746 4 14.26585
v -7.653484 4.5 14.81533
v -5.364746 4.5 14.26585
v -7.653484 0 14.81533
v -10 0 15
v -7.653484 4.5 14.81533
v -10 5 15
v -7.653484 4.5 14.81533
v -10 5 15
v -7.653484 5 14.81533
v -10 0 10
v -10 0 15
v -10 5 10
v -10 5 15

vn 0 0 -1
vn 0 0 -1
vn 0 0 -1
vn 0 0 -1
vn 0 1 0
vn 0 1 0
vn 0 1 0
vn 0 1 0
vn 0.1564345 0 -0.9876884
vn 0.1564345 0 -0.9876884
vn 0.1564345 0 -0.9876884
vn 0.1564345 0 -0.9876884
vn 0 1 0
vn 0 0.9999999 0
vn 0 1 0
vn 0 0.9999999 0
vn 0.309017 0 -0.9510565
vn 0.309017 0 -0.9510565
vn 0.309017 0 -0.9510565
vn 0.309017 0 -0.9510565
vn 0 1 0
vn 0 1 0
vn 0 1 0
vn 0 1 0
vn 0.4539905 0 -0.8910065
vn 0.4539905 0 -0.8910065
vn 0.4539905 0 -0.8910065
vn 0.4539905 0 -0.8910065
vn 0 1 0
vn 0 1 0
vn 0 1 0
vn 0 1 0
vn 0.5877852 0 -0.8090171
vn 0.5877852 0 -0.8090171
vn 0.5877852 0 -0.8090171
vn 0.5877852 0 -0.8090171
vn 0 1 0
vn 0 1 0
vn 0 1 0
vn 0 1 0
vn 0.7071068 0 -0.7071068
vn 0.7071068 0 -0.7071068
vn 0.7071068 0 -0.7071068
vn 0.7071068 0 -0.7071068
vn 0 1 0
vn 0 1 0
vn 0 1 0
vn 0 1 0
vn 0.8090171 0 -0.5877852
vn 0.8090171 0 -0.5877852
vn 0.8090171 0 -0.5877852
vn 0.8090171 0 -0.5877852
vn 0 1 0
vn 0 1 0
vn 0 1 0
vn 0 1 0
vn 0.8910065 0 -0.4539905
vn 0.8910065 0 -0.4539905
vn 0.8910065 0 -0.4539905
vn 0.8910065 0 -0.4539905
vn 0 1 0
vn 0 1 0
vn 0 1 0
vn 0 1 0
vn 0.9510565 0 -0.3090169
vn 0.9510565 0 -0.3090169
vn 0.9510565 0 -0.3090169
vn 0.9510565 0 -0.3090169
vn 0 1 0
vn 0 1 0
vn 0 1 0
vn 0 1 0
vn 0.9876884 0 -0.1564344
vn 0.9876884 0 -0.1564344
vn 0.9876884 0 -0.1564344
vn 0.9876884 0 -0.1564344
vn 0 1 0
vn 0 0.9999999 0
vn 0 1 0
vn 0 1 0
vn -0.9969173 0 -0.07845902
vn -0.9846437 0 -0.1559521
vn -0.9969173 0 -0.07845902
vn -0.9805524 0 -0.1817831
vn -0.9846437 0 -0.1559521
vn -0.9481247 0 -0.3080643
vn -0.9805524 0 -0.1817831
vn -0.9481247 0 -0.3080643
vn -0.9805524 0 -0.1817831
vn -0.9481247 0 -0.3080643
vn -0.97237 0 -0.2334451
vn -0.9481247 0 -0.3080643
vn -0.8882598 0 -0.4525912
vn -0.9481247 0 -0.3080643
vn -0.8882597 0 -0.4525912
vn -0.9481247 0 -0.3080643
vn -0.8882597 0 -0.4525912
vn -0.9238794 0 -0.3826835
vn -0.8882598 0 -0.4525912
vn -0.806523 0 -0.5859734
vn -0.8882597 0 -0.4525912
vn -0.806523 0 -0.5859734
vn -0.8882597 0 -0.4525912
vn -0.806523 0 -0.5859734
vn -0.85264 0 -0.5224988
vn -0.806523 0 -0.5859734
vn -0.704927 0 -0.704927
vn -0.806523 0 -0.5859734
vn -0.704927 0 -0.704927
vn -0.806523 0 -0.5859734
vn -0.704927 0 -0.704927
vn -0.760406 0 -0.649448
vn -0.704927 0 -0.704927
vn -0.5859734 0 -0.806523
vn -0.704927 0 -0.704927
vn -0.5859734 0 -0.806523
vn -0.704927 0 -0.704927
vn -0.5859734 0 -0.806523
vn -0.649448 0 -0.760406
vn -0.5859734 0 -0.806523
vn -0.4525912 0 -0.8882598
vn -0.5859734 0 -0.806523
vn -0.4525912 0 -0.8882597
vn -0.5859734 0 -0.806523
vn -0.4525912 0 -0.8882597
vn -0.5224988 0 -0.85264
vn -0.4525912 0 -0.8882598
vn -0.3080642 0 -0.9481248
vn -0.4525912 0 -0.8882597
vn -0.3080642 0 -0.9481248
vn -0.4525912 0 -0.8882597
vn -0.3080642 0 -0.9481248
vn -0.3826835 0 -0.9238794
vn -0.3080642 0 -0.9481248
vn -0.155952 0 -0.9846437
vn -0.3080642 0 -0.9481248
vn -0.155952 0 -0.9846436
vn -0.3080642 0 -0.9481248
vn -0.155952 0 -0.9846436
vn -0.2334449 0 -0.97237
vn -0.155952 0 -0.9846437
vn -0.07845909 0 -0.9969173
vn -0.155952 0 -0.9846436
vn -0.0784591 0 -0.9969174
vn -0.155952 0 -0.9846436
vn -0.0784591 0 -0.9969174
vn -0.07845909 0 -0.9969173
vn 0.9969174 0 0.07845883
vn 0.9846436 0 0.1559522
vn 0.9969174 0 0.07845883
vn 0.9805524 0 0.1817833
vn 0.9846436 0 0.1559522
vn 0.9481246 0 0.3080645
vn 0.9805524 0 0.1817833
vn 0.9481246 0 0.3080645
vn 0.9805524 0 0.1817833
vn 0.9481246 0 0.3080645
vn 0.9723698 0 0.2334455
vn 0.9481246 0 0.3080645
vn 0.8882598 0 0.4525912
vn 0.9481246 0 0.3080645
vn 0.8882598 0 0.4525912
vn 0.9481246 0 0.3080645
vn 0.8882598 0 0.4525912
vn 0.9238795 0 0.3826835
vn 0.8882598 0 0.4525912
vn 0.8065231 0 0.5859734
vn 0.8882598 0 0.4525912
vn 0.806523 0 0.5859733
vn 0.8882598 0 0.4525912
vn 0.806523 0 0.5859733
vn 0.85264 0 0.5224988
vn 0.8065231 0 0.5859734
vn 0.704927 0 0.704927
vn 0.806523 0 0.5859733
vn 0.704927 0 0.704927
vn 0.806523 0 0.5859733
vn 0.704927 0 0.704927
vn 0.7604061 0 0.6494479
vn 0.704927 0 0.704927
vn 0.5859734 0 0.8065231
vn 0.704927 0 0.704927
vn 0.5859734 0 0.8065231
vn 0.704927 0 0.704927
vn 0.5859734 0 0.8065231
vn 0.6494479 0 0.7604061
vn 0.5859734 0 0.8065231
vn 0.4525911 0 0.8882598
vn 0.5859734 0 0.8065231
vn 0.4525911 0 0.8882598
vn 0.5859734 0 0.8065231
vn 0.4525911 0 0.8882598
vn 0.5224988 0 0.85264
vn 0.4525911 0 0.8882598
vn 0.3080644 0 0.9481247
vn 0.4525911 0 0.8882598
vn 0.3080644 0 0.9481247
vn 0.4525911 0 0.8882598
vn 0.3080644 0 0.9481247
vn 0.3826834 0 0.9238796
vn 0.3080644 0 0.9481247
vn 0.1559521 0 0.9846436
vn 0.3080644 0 0.9481247
vn 0.1559521 0 0.9846437
vn 0.3080644 0 0.9481247
vn 0.1559521 0 0.9846437
vn 0.2334454 0 0.9723698
vn 0.1559521 0 0.9846436
vn 0.07845885 0 0.9969174
vn 0.1559521 0 0.9846437
vn 0.07845885 0 0.9969174
vn 0.1559521 0 0.9846437
vn 0.07845885 0 0.9969174
vn 0.07845885 0 0.9969174
vn -1 0 -1.907349E-07
vn -1 0 -1.907349E-07
vn -1 0 -1.907349E-07
vn -1 0 -1.907349E-07

vt 0 0
vt -5 0
vt 0 0.5
vt -5 0.5
vt 0.08453584 0.1949343
vt -4.900051 -0.1973604
vt -4.900051 2.156413
vt 0.08453584 1.764116
vt -0.1231167 0.5
vt -5.123117 0.5
vt -0.1231167 1
vt -5.123117 1
vt 0.4183972 2.14044
vt -4.56619 1.748145
vt -4.56619 4.101917
vt 0.4183967 3.709622
vt -0.4894355 1
vt -5.489436 1
vt -0.4894355 1.5
vt -5.489436 1.5
vt 1.043034 4.026725
vt -3.941553 3.63443
vt -3.941553 5.988203
vt 1.043034 5.595907
vt -1.089936 1.5
vt -6.089936 1.5
vt -1.089936 2
vt -6.089936 2
vt 1.939428 5.804702
vt -3.045159 5.412406
vt -3.045158 7.766179
vt 1.939428 7.373884
vt -1.909829 2
vt -6.909829 2
vt -1.909829 2.5
vt -6.909829 2.5
vt 3.082865 7.426952
vt -1.901721 7.034656
vt -1.901722 9.38843
vt 3.082865 8.996134
vt -2.928932 2.5
vt -7.928933 2.5
vt -2.928932 3
vt -7.928933 3
vt 4.443799 8.849255
vt -0.5407877 8.456959
vt -0.5407877 10.81073
vt 4.443799 10.41844
vt -4.122148 3
vt -9.122148 3
vt -4.122148 3.5
vt -9.122148 3.5
vt 5.988721 10.03209
vt 1.004135 9.639797
vt 1.004134 11.99357
vt 5.98872 11.60127
vt -5.460095 3.5
vt -10.4601 3.5
vt -5.460095 4
vt -10.4601 4
vt 7.680977 10.94206
vt 2.69639 10.54977
vt 2.696391 12.90354
vt 7.680977 12.51125
vt -6.909832 4
vt -11.90983 4
vt -6.909832 4.5
vt -11.90983 4.5
vt 9.481544 11.55312
vt 4.496957 11.16083
vt 4.496957 13.5146
vt 9.481544 13.12231
vt -8.435656 4.5
vt -13.43566 4.5
vt -8.435656 5
vt -13.43566 5
vt 11.34972 11.84758
vt 6.365133 11.45529
vt 6.365134 13.80906
vt 11.34972 13.41677
vt 0 0
vt 1.569182 0
vt 0 0.5
vt 1.569182 0.5
vt 1.549863 -6.174596E-09
vt 3.119045 -6.174596E-09
vt 1.549863 0.5
vt 3.119045 1
vt 1.549863 0.5
vt 3.119045 1
vt 1.549863 1
vt 3.042243 -1.940482E-09
vt 4.611425 -1.940482E-09
vt 3.042243 1
vt 4.611425 1.5
vt 3.042243 1
vt 4.611425 1.5
vt 3.042243 1.5
vt 4.440394 -4.229761E-09
vt 6.009576 -4.229761E-09
vt 4.440394 1.5
vt 6.009576 2
vt 4.440394 1.5
vt 6.009576 2
vt 4.440394 2
vt 5.70989 -1.025747E-08
vt 7.279072 -1.025747E-08
vt 5.70989 2
vt 7.279072 2.5
vt 5.70989 2
vt 7.279072 2.5
vt 5.70989 2.5
vt -6.819469 0
vt -8.388651 0
vt -6.819469 2.5
vt -8.388651 3
vt -6.819469 2.5
vt -8.388651 3
vt -6.819469 3
vt -7.741813 -9.970906E-09
vt -9.310994 -9.970906E-09
vt -7.741813 3
vt -9.310994 3.5
vt -7.741813 3
vt -9.310994 3.5
vt -7.741813 3.5
vt -8.454206 1.140178E-08
vt -10.02339 1.140178E-08
vt -8.454206 3.5
vt -10.02339 4
vt -8.454206 3.5
vt -10.02339 4
vt -8.454206 4
vt -8.939104 -6.409731E-09
vt -10.50829 -6.409731E-09
vt -8.939104 4
vt -10.50829 4.5
vt -8.939104 4
vt -10.50829 4.5
vt -8.939104 4.5
vt -9.184584 -1.246965E-09
vt -10.75376 -1.246965E-09
vt -9.184584 4.5
vt -10.75376 5
vt -9.184584 4.5
vt -10.75376 5
vt -9.184584 5
vt 0.3922942 0
vt -1.961479 0
vt 0.3922942 0.5
vt -1.961479 0.5
vt 1.157567 -3.37016E-08
vt 3.511339 -3.37016E-08
vt 1.157567 0.5
vt 3.511339 0.9999999
vt 1.157567 0.5
vt 3.511339 0.9999999
vt 1.157567 0.9999999
vt 2.649948 6.662782E-09
vt 5.003721 6.662782E-09
vt 2.649948 1
vt 5.003721 1.5
vt 2.649948 1
vt 5.003721 1.5
vt 2.649948 1.5
vt 4.048098 -1.658134E-08
vt 6.40187 -1.658134E-08
vt 4.048098 1.5
vt 6.40187 2
vt 4.048098 1.5
vt 6.40187 2
vt 4.048098 2
vt 5.317595 -8.094271E-08
vt 7.671369 -8.094271E-08
vt 5.317595 2
vt 7.671369 2.5
vt 5.317595 2
vt 7.671369 2.5
vt 5.317595 2.5
vt -6.427171 0
vt -8.780945 0
vt -6.427171 2.5
vt -8.780945 3
vt -6.427171 2.5
vt -8.780945 3
vt -6.427171 3
vt -7.349519 -5.931001E-08
vt -9.703291 -5.931001E-08
vt -7.349519 3
vt -9.703291 3.5
vt -7.349519 3
vt -9.703291 3.5
vt -7.349519 3.5
vt -8.061908 -1.345728E-08
vt -10.41568 -1.345728E-08
vt -8.061908 3.5
vt -10.41568 4
vt -8.061908 3.5
vt -10.41568 4
vt -8.061908 4
vt -8.546814 -2.398726E-09
vt -10.90059 -2.398726E-09
vt -8.546814 4
vt -10.90059 4.5
vt -8.546814 4
vt -10.90059 4.5
vt -8.546814 4.5
vt -8.792285 -1.14685E-09
vt -11.14606 -1.14685E-09
vt -8.792285 4.5
vt -11.14606 5
vt -8.792285 4.5
vt -11.14606 5
vt -8.792285 5
vt 10 0
vt 15 0
vt 10 5
vt 15 5

g TexturesCom_ConcreteRough0076_1_seamless_S
usemtl TexturesCom_ConcreteRough0076_1_seamless_S
usemap TexturesCom_ConcreteRough0076_1_seamless_S
f 2/2/2 1/1/1 3/3/3
f 4/4/4 2/2/2 3/3/3
f 6/6/6 5/5/5 7/7/7
f 7/7/7 5/5/5 8/8/8
f 10/10/10 9/9/9 11/11/11
f 12/12/12 10/10/10 11/11/11
f 14/14/14 13/13/13 15/15/15
f 15/15/15 13/13/13 16/16/16
f 18/18/18 17/17/17 19/19/19
f 20/20/20 18/18/18 19/19/19
f 22/22/22 21/21/21 23/23/23
f 23/23/23 21/21/21 24/24/24
f 26/26/26 25/25/25 27/27/27
f 28/28/28 26/26/26 27/27/27
f 30/30/30 29/29/29 31/31/31
f 31/31/31 29/29/29 32/32/32
f 34/34/34 33/33/33 35/35/35
f 36/36/36 34/34/34 35/35/35
f 38/38/38 37/37/37 39/39/39
f 39/39/39 37/37/37 40/40/40
f 42/42/42 41/41/41 43/43/43
f 44/44/44 42/42/42 43/43/43
f 46/46/46 45/45/45 47/47/47
f 47/47/47 45/45/45 48/48/48
f 50/50/50 49/49/49 51/51/51
f 52/52/52 50/50/50 51/51/51
f 54/54/54 53/53/53 55/55/55
f 55/55/55 53/53/53 56/56/56
f 58/58/58 57/57/57 59/59/59
f 60/60/60 58/58/58 59/59/59
f 62/62/62 61/61/61 63/63/63
f 63/63/63 61/61/61 64/64/64
f 66/66/66 65/65/65 67/67/67
f 68/68/68 66/66/66 67/67/67
f 70/70/70 69/69/69 71/71/71
f 71/71/71 69/69/69 72/72/72
f 74/74/74 73/73/73 75/75/75
f 76/76/76 74/74/74 75/75/75
f 78/78/78 77/77/77 79/79/79
f 79/79/79 77/77/77 80/80/80
f 82/82/82 83/83/83 81/81/81
f 84/84/84 83/83/83 82/82/82
f 86/86/86 87/87/87 85/85/85
f 88/88/88 87/87/87 86/86/86
f 90/90/90 91/91/91 89/89/89
f 93/93/93 94/94/94 92/92/92
f 95/95/95 94/94/94 93/93/93
f 97/97/97 98/98/98 96/96/96
f 100/100/100 101/101/101 99/99/99
f 102/102/102 101/101/101 100/100/100
f 104/104/104 105/105/105 103/103/103
f 107/107/107 108/108/108 106/106/106
f 109/109/109 108/108/108 107/107/107
f 111/111/111 112/112/112 110/110/110
f 114/114/114 115/115/115 113/113/113
f 116/116/116 115/115/115 114/114/114
f 118/118/118 119/119/119 117/117/117
f 121/121/121 122/122/122 120/120/120
f 123/123/123 122/122/122 121/121/121
f 125/125/125 126/126/126 124/124/124
f 128/128/128 129/129/129 127/127/127
f 130/130/130 129/129/129 128/128/128
f 132/132/132 133/133/133 131/131/131
f 135/135/135 136/136/136 134/134/134
f 137/137/137 136/136/136 135/135/135
f 139/139/139 140/140/140 138/138/138
f 142/142/142 143/143/143 141/141/141
f 144/144/144 143/143/143 142/142/142
f 146/146/146 147/147/147 145/145/145
f 149/149/149 148/148/148 150/150/150
f 151/151/151 149/149/149 150/150/150
f 153/153/153 152/152/152 154/154/154
f 155/155/155 153/153/153 154/154/154
f 157/157/157 156/156/156 158/158/158
f 160/160/160 159/159/159 161/161/161
f 162/162/162 160/160/160 161/161/161
f 164/164/164 163/163/163 165/165/165
f 167/167/167 166/166/166 168/168/168
f 169/169/169 167/167/167 168/168/168
f 171/171/171 170/170/170 172/172/172
f 174/174/174 173/173/173 175/175/175
f 176/176/176 174/174/174 175/175/175
f 178/178/178 177/177/177 179/179/179
f 181/181/181 180/180/180 182/182/182
f 183/183/183 181/181/181 182/182/182
f 185/185/185 184/184/184 186/186/186
f 188/188/188 187/187/187 189/189/189
f 190/190/190 188/188/188 189/189/189
f 192/192/192 191/191/191 193/193/193
f 195/195/195 194/194/194 196/196/196
f 197/197/197 195/195/195 196/196/196
f 199/199/199 198/198/198 200/200/200
f 202/202/202 201/201/201 203/203/203
f 204/204/204 202/202/202 203/203/203
f 206/206/206 205/205/205 207/207/207
f 209/209/209 208/208/208 210/210/210
f 211/211/211 209/209/209 210/210/210
f 213/213/213 212/212/212 214/214/214
f 216/216/216 217/217/217 215/215/215
f 218/218/218 217/217/217 216/216/216
