mtllib ./pb-358836.mtl
g Small Wall 1-1
v 3 0 1
v -3 0 1
v 3 3 0.5
v -3 3 0.5
v -3 0 1
v -3 0 -1
v -3 3 0.5
v -3 2.630794 -0.5
v -3 0 -1
v 3 0 -1
v -3 2.630794 -0.5
v 3 2.630794 -0.5
v 3 0 -1
v 3 0 1
v 3 2.630794 -0.5
v 3 3 0.5
v 3 0 -1
v -3 0 -1
v 3 0 1
v -3 0 1
v 3 3 0.5
v -3 3 0.5
v 0.2307648 2.840328 0.09104729
v -0.2307648 2.840328 0.09104729
v 3 2.630794 -0.5
v 3 3 0.5
v 0.2307648 2.682832 -0.3189802
v 3 3 0.5
v 0.2307648 2.840328 0.09104729
v 0.2307648 2.682832 -0.3189802
v -3 3 0.5
v -3 2.630794 -0.5
v -0.2307648 2.840328 0.09104729
v -0.2307648 2.682832 -0.3189802
v -3 2.630794 -0.5
v 3 2.630794 -0.5
v -0.2307648 2.682832 -0.3189802
v 0.2307648 2.682832 -0.3189802
v 0.1314367 2.744586 0.03606569
v -0.1314367 2.744586 0.03606569
v 0.1314367 2.654881 -0.1974737
v -0.1314367 2.654881 -0.1974737
v 0.2307648 2.840328 0.09104729
v -0.2307648 2.840328 0.09104729
v 0.1314367 2.744586 0.03606569
v -0.1314367 2.744586 0.03606569
v 0.2307648 2.682832 -0.3189802
v 0.2307648 2.840328 0.09104729
v 0.1314367 2.654881 -0.1974737
v 0.1314367 2.744586 0.03606569
v -0.2307648 2.840328 0.09104729
v -0.2307648 2.682832 -0.3189802
v -0.1314367 2.744586 0.03606569
v -0.1314367 2.654881 -0.1974737
v -0.2307648 2.682832 -0.3189802
v 0.2307648 2.682832 -0.3189802
v -0.1314367 2.654881 -0.1974737
v 0.1314367 2.654881 -0.1974737

vn 0 0.164399 0.986394
vn 0 0.164399 0.986394
vn 0 0.164399 0.986394
vn 0 0.164399 0.986394
vn -1 0 0
vn -1 0 0
vn -1 0 0
vn -1 0 0
vn 0 0.1867144 -0.9824143
vn 0 0.1867144 -0.9824143
vn 0 0.1867144 -0.9824143
vn 0 0.1867144 -0.9824143
vn 1 0 0
vn 1 0 0
vn 1 0 0
vn 1 0 0
vn 0 -1 0
vn 0 -1 0
vn 0 -1 0
vn 0 -1 0
vn 0 0.9315155 -0.3637016
vn 0 0.9315155 -0.3637016
vn 0 0.9315155 -0.3637016
vn 0 0.9315155 -0.3637016
vn -0.005012172 0.9380923 -0.3463493
vn -0.003804251 0.9367711 -0.3499219
vn -0.003804251 0.9367711 -0.3499219
vn -0.003804251 0.9367711 -0.3499219
vn -0.000872462 0.9335027 -0.3585695
vn -0.003804251 0.9367711 -0.3499219
vn 0.002941776 0.9381 -0.3463521
vn 0.003804254 0.9367712 -0.349922
vn 0.003804254 0.9367712 -0.349922
vn 0.005897132 0.9334866 -0.3585634
vn 0 0.961077 -0.2762806
vn 0 0.961077 -0.2762806
vn 0 0.961077 -0.2762806
vn 0 0.9610771 -0.2762804
vn 0 0.933503 -0.3585695
vn 0 0.933503 -0.3585695
vn 0 0.933503 -0.3585695
vn 0 0.933503 -0.3585695
vn 0 0.4979933 -0.8671808
vn 0 0.4979933 -0.8671809
vn 0 0.4979933 -0.8671809
vn 0 0.4979933 -0.8671809
vn -0.5741881 0.7642807 -0.2935694
vn -0.5741882 0.7642807 -0.2935693
vn -0.5741882 0.7642807 -0.2935693
vn -0.5741882 0.7642806 -0.2935692
vn 0.5741882 0.7642806 -0.2935693
vn 0.5741882 0.7642807 -0.2935693
vn 0.5741882 0.7642807 -0.2935693
vn 0.5741881 0.7642808 -0.2935693
vn 0 0.9745473 0.224182
vn 0 0.9745473 0.224182
vn 0 0.9745473 0.224182
vn 0 0.9745473 0.224182

vt 3 -0.164399
vt -3 -0.164399
vt 3 2.876982
vt -3 2.876982
vt 1 0
vt -1 0
vt 0.5 3
vt -0.5 2.630794
vt 3 -0.1867144
vt -3 -0.1867144
vt 3 2.491172
vt -3 2.491172
vt 1 0
vt -1 0
vt 0.5 2.630794
vt -0.5 3
vt 3 -1
vt -3 -1
vt 3 1
vt -3 1
vt -3 1.556862
vt 3 1.556862
vt -0.2307648 1.117844
vt 0.2307648 1.117844
vt -3.014013 0.4365563
vt -3.015986 1.502534
vt -0.2450955 0.6295194
vt -3.015986 1.502534
vt -0.245937 1.068717
vt -0.2450955 0.6295194
vt 3.009393 1.504845
vt 3.008235 0.438866
vt 0.2396705 1.06891
vt 0.2391766 0.6297125
vt 3 0.2462989
vt -3 0.2462989
vt 0.2307648 0.4346499
vt -0.2307648 0.4346499
vt -0.1314367 1.017792
vt 0.1314367 1.017792
vt -0.1314367 0.7676171
vt 0.1314367 0.7676171
vt -0.2307648 2.508419
vt 0.2307648 2.508419
vt -0.1314367 2.398013
vt 0.1314367 2.398013
vt -1.795953 0.2840741
vt -1.890554 0.7130011
vt -1.69975 0.4111813
vt -1.753632 0.6554852
vt 1.890554 0.713001
vt 1.795953 0.284074
vt 1.753633 0.6554851
vt 1.699751 0.4111812
vt 0.2307648 -0.9123038
vt -0.2307648 -0.9123038
vt 0.1314367 -0.7876238
vt -0.1314367 -0.7876238

g TexturesCom_ConcreteFence0027_1_seamless_S
usemtl TexturesCom_ConcreteFence0027_1_seamless_S
usemap TexturesCom_ConcreteFence0027_1_seamless_S
f 2/2/2 1/1/1 3/3/3
f 4/4/4 2/2/2 3/3/3
f 6/6/6 5/5/5 7/7/7
f 8/8/8 6/6/6 7/7/7
f 10/10/10 9/9/9 11/11/11
f 12/12/12 10/10/10 11/11/11
f 14/14/14 13/13/13 15/15/15
f 16/16/16 14/14/14 15/15/15
f 18/18/18 17/17/17 19/19/19
f 20/20/20 18/18/18 19/19/19
f 22/22/22 21/21/21 23/23/23
f 24/24/24 22/22/22 23/23/23
f 26/26/26 25/25/25 27/27/27
f 29/29/29 28/28/28 30/30/30
f 32/32/32 31/31/31 33/33/33
f 34/34/34 32/32/32 33/33/33
f 36/36/36 35/35/35 37/37/37
f 38/38/38 36/36/36 37/37/37

g TexturesCom_ConcreteBare0398_7_seamless_S
usemtl TexturesCom_ConcreteBare0398_7_seamless_S
usemap TexturesCom_ConcreteBare0398_7_seamless_S
f 40/40/40 39/39/39 41/41/41
f 42/42/42 40/40/40 41/41/41
f 44/44/44 43/43/43 45/45/45
f 46/46/46 44/44/44 45/45/45
f 48/48/48 47/47/47 49/49/49
f 50/50/50 48/48/48 49/49/49
f 52/52/52 51/51/51 53/53/53
f 54/54/54 52/52/52 53/53/53
f 56/56/56 55/55/55 57/57/57
f 58/58/58 56/56/56 57/57/57
